<?xml version="1.0" encoding="utf-8"?>
<!-- Generator: Adobe Illustrator 27.5.0, SVG Export Plug-In . SVG Version: 6.00 Build 0)  -->
<svg version="1.1" xmlns="http://www.w3.org/2000/svg" xmlns:xlink="http://www.w3.org/1999/xlink" x="0px" y="0px"
	 viewBox="0 0 750 500" style="enable-background:new 0 0 750 500;" xml:space="preserve">
<g id="BACKGROUND_x0A_">
	<rect style="fill:#FFFFFF;" width="750" height="500"/>
</g>
<g id="OBJECTS_x0A_">
	<g>
		<g>
			<g>
				<path style="fill:#DADEF1;" d="M100.915,317.09h-52.59c-1.208,0-2.186-0.979-2.186-2.186v-37.325
					c0-1.976,1.602-3.577,3.577-3.577h51.199c1.207,0,2.186,0.979,2.186,2.186v38.716
					C103.101,316.111,102.122,317.09,100.915,317.09z"/>
			</g>
			<g>
				<g>
					<path style="fill:#B8C1EA;" d="M84.099,274.269c0,14.291,0,28.583,0,42.874c0,0.804,1.25,0.806,1.25,0
						c0-14.291,0-28.583,0-42.874C85.349,273.465,84.099,273.463,84.099,274.269L84.099,274.269z"/>
				</g>
			</g>
			<rect x="61.213" y="274.001" style="fill:#FFFFFF;" width="7.931" height="7.931"/>
			<rect x="91.18" y="309.159" style="fill:#FFFFFF;" width="7.931" height="7.931"/>
			<path style="fill:none;stroke:#B8C1EA;stroke-miterlimit:10;" d="M46.187,316.417l-0.048-40.759c0-0.983,0.797-1.78,1.78-1.78
				l55.183,0.123"/>
		</g>
		<g>
			<g>
				<path style="fill:#DADEF1;" d="M131.805,388.294H43.261c-1.207,0-2.186-0.979-2.186-2.186v-64.522
					c0-1.976,1.602-3.577,3.577-3.577h87.153c1.208,0,2.186,0.979,2.186,2.186v65.913
					C133.992,387.315,133.013,388.294,131.805,388.294z"/>
			</g>
			<g>
				<g>
					<path style="fill:#B8C1EA;" d="M103.389,318.446c0,18.161,0,36.321,0,54.482c0,5.151,0,10.303,0,15.454
						c0,0.804,1.25,0.806,1.25,0c0-18.16,0-36.321,0-54.482c0-5.151,0-10.303,0-15.454
						C104.639,317.642,103.389,317.641,103.389,318.446L103.389,318.446z"/>
				</g>
			</g>
			<rect x="65.664" y="318.009" style="fill:#FFFFFF;" width="12.936" height="12.936"/>
			<rect x="114.546" y="375.358" style="fill:#FFFFFF;" width="12.936" height="12.936"/>
			<path style="fill:none;stroke:#B8C1EA;stroke-miterlimit:10;" d="M41.153,387.198l-0.078-66.486c0-1.604,1.3-2.904,2.903-2.904
				l90.013,0.2"/>
		</g>
		<g>
			<g>
				<path style="fill:#DADEF1;" d="M118.268,458.535H29.725c-1.208,0-2.186-0.979-2.186-2.186v-64.522
					c0-1.976,1.602-3.577,3.577-3.577h87.153c1.208,0,2.186,0.979,2.186,2.186v65.913
					C120.455,457.556,119.476,458.535,118.268,458.535z"/>
			</g>
			<g>
				<g>
					<path style="fill:#B8C1EA;" d="M89.853,388.687c0,18.161,0,36.321,0,54.482c0,5.151,0,10.303,0,15.454
						c0,0.804,1.25,0.806,1.25,0c0-18.161,0-36.321,0-54.482c0-5.151,0-10.303,0-15.454
						C91.103,387.883,89.853,387.882,89.853,388.687L89.853,388.687z"/>
				</g>
			</g>
			<rect x="52.127" y="388.25" style="fill:#FFFFFF;" width="12.936" height="12.936"/>
			<rect x="101.009" y="445.599" style="fill:#FFFFFF;" width="12.936" height="12.936"/>
			<path style="fill:none;stroke:#B8C1EA;stroke-miterlimit:10;" d="M27.617,457.439l-0.079-66.486c0-1.604,1.3-2.904,2.903-2.904
				l90.013,0.2"/>
		</g>
	</g>
	<g>
		<g>
			<g>
				<path style="fill:#DADEF1;" d="M239.297,162.213c-3.387,0-6.773,0-10.16,0c-8.089,0-16.178,0-24.266,0
					c-9.823,0-19.646,0-29.47,0c-8.456,0-16.912,0-25.369,0c-2.79,0-5.58,0-8.37,0c-1.312,0-2.682-0.113-3.991,0
					c-0.059,0.005-0.121,0-0.181,0c-0.804,0-0.806,1.25,0,1.25c3.387,0,6.773,0,10.16,0c8.089,0,16.178,0,24.266,0
					c9.823,0,19.646,0,29.469,0c8.456,0,16.913,0,25.369,0c2.79,0,5.58,0,8.37,0c1.312,0,2.682,0.113,3.991,0
					c0.059-0.005,0.121,0,0.181,0C240.101,163.463,240.102,162.213,239.297,162.213L239.297,162.213z"/>
			</g>
		</g>
		<path style="fill:#DADEF1;" d="M237.946,162.781c0,2.341,1.898,4.239,4.239,4.239c2.341,0,4.239-1.898,4.239-4.239
			c0-2.341-1.898-4.239-4.239-4.239C239.843,158.543,237.946,160.441,237.946,162.781z"/>
	</g>
	<g>
		<g>
			<g>
				<path style="fill:#DADEF1;" d="M133.938,241.378c0,19.324,0,38.649,0,57.973c0,0.804,1.25,0.806,1.25,0
					c0-19.324,0-38.649,0-57.973C135.188,240.574,133.938,240.573,133.938,241.378L133.938,241.378z"/>
			</g>
		</g>
		<path style="fill:#DADEF1;" d="M129.753,300.555c0,2.341,1.898,4.238,4.238,4.238c2.341,0,4.239-1.898,4.239-4.238
			s-1.898-4.239-4.239-4.239C131.651,296.316,129.753,298.214,129.753,300.555z"/>
	</g>
	<g>
		<g>
			<g>
				<path style="fill:#F2A441;" d="M94.2,244.452h64.474c1.208,0,2.187-0.979,2.187-2.186v-46.315c0-1.976-1.602-3.577-3.577-3.577
					H94.2c-1.208,0-2.186,0.979-2.186,2.186v47.706C92.014,243.473,92.993,244.452,94.2,244.452z"/>
			</g>
			<g>
				<g>
					<path style="fill:#26244A;" d="M113.6,192.697c0,17.273,0,34.546,0,51.819c0,0.804,1.25,0.806,1.25,0
						c0-17.273,0-34.546,0-51.819C114.85,191.893,113.6,191.892,113.6,192.697L113.6,192.697z"/>
				</g>
			</g>
			
				<rect x="133.056" y="192.373" transform="matrix(-1 -1.224647e-16 1.224647e-16 -1 275.6974 394.3316)" style="fill:#DADEF1;" width="9.585" height="9.585"/>
			
				<rect x="96.837" y="234.867" transform="matrix(-1 -1.224647e-16 1.224647e-16 -1 203.2586 479.3183)" style="fill:#DADEF1;" width="9.585" height="9.585"/>
		</g>
		<g>
			<path style="fill:#F4B298;" d="M106.48,175.184c0,0,5.775-7.587,19.957-10.229c14.181-2.642,19.518,1.754,19.518,1.754
				s8.051,12.886,4.315,20.876s-5.661,19.786,3.219,23.118c8.881,3.332,18.999-7.345,21.75-18.868
				c2.285-9.57,5.238-17.606,1.496-37.387c-3.742-19.781-44.318-39.829-44.318-39.829s-21.348,18.657-30.789,29.076
				s-8.825,22.601-8.825,22.601"/>
			<path style="fill:#F4B298;" d="M132.923,112.14c0,0-24.652,8.215-39.468,20.948c-7.076,6.081-20.929,35.812-28.602,57.172
				c-1.498,4.171-2.773,7.332-3.3,9.007c-2.75,8.734,5.832,18.665,14.931,12.055c7.616-5.533,13.566-24.177,13.566-24.177
				l21.825-44.775L132.923,112.14z"/>
			<path style="fill:#F4B298;" d="M54.692,173.216l37.792-39.192l-21.058,52.86c0,0-2.765,1.6-7.261,3.372
				c-4.163,1.64-7.898-0.091-8.791-0.897C50.665,185.105,50.362,177.405,54.692,173.216z"/>
			<path style="fill:#F4B298;" d="M203.331,112.14l-37.464,38.291l-25.132-21.202l-17.348-13.418l22.387-43.235
				C166.694,72.214,192.285,87.127,203.331,112.14z"/>
			<g>
				<path style="fill:#F4B298;" d="M89.242,157.046l23.665,2.341c-3.94,4.751-5.681,11.148-6.304,17.371
					c-0.623,6.223-0.255,12.463-0.616,18.697c-0.206,3.546-0.675,7.182-2.248,10.371c-1.573,3.189-4.447,5.874-7.725,6.213
					c-2.923,0.302-5.73-1.303-7.61-3.628c-1.88-2.324-2.956-5.296-3.76-8.292C80.888,186.124,82.58,170.268,89.242,157.046z"/>
			</g>
			<g>
				<g>
					<path style="fill:#ED796A;" d="M85.247,199.954c-1.108-6.221-2.34-12.574-2.313-18.919c0.031-7.074,2.56-13.884,6.307-19.818
						c1.811-2.868,3.929-5.64,6.547-7.822c0.618-0.516-0.27-1.396-0.884-0.884c-5.147,4.291-8.844,10.718-11.102,16.942
						c-2.144,5.91-2.406,11.862-1.723,18.041c0.474,4.288,1.206,8.547,1.962,12.793C84.182,201.077,85.387,200.742,85.247,199.954
						L85.247,199.954z"/>
				</g>
			</g>
			<g>
				<g>
					<path style="fill:#ED796A;" d="M65.159,192.391c5.247-14.094,11.182-27.923,17.784-41.436c0.352-0.72-0.726-1.354-1.079-0.631
						c-6.648,13.609-12.626,27.54-17.91,41.734C63.672,192.813,64.88,193.139,65.159,192.391L65.159,192.391z"/>
				</g>
			</g>
			<g>
				<g>
					<path style="fill:#ED796A;" d="M162.761,133.346c7.588,7.033,12.287,16.166,14.277,26.258
						c1.907,9.669,1.656,20.017-1.899,29.268c-2.001,5.207-4.51,10.452-8.139,14.736c-2.99,3.529-7.029,6.519-11.872,6.241
						c-2.189-0.126-4.704-0.823-6.3-2.403c-1.439-1.426-1.973-3.447-2.034-5.42c-0.124-4.014,1.269-8.074,2.851-11.711
						c2.568-5.903,3.136-12.282,0.327-18.235c-1.773-3.756-4.251-7.261-6.784-10.542c-0.485-0.628-1.571-0.006-1.079,0.631
						c2.351,3.044,4.596,6.269,6.361,9.69c1.503,2.912,2.268,6.1,2.177,9.384c-0.089,3.229-1.092,6.091-2.331,9.028
						c-1.581,3.744-2.97,7.91-2.76,12.028c0.097,1.904,0.59,3.816,1.781,5.338c1.336,1.709,3.349,2.618,5.418,3.112
						c10.731,2.562,17.898-8.732,21.681-16.991c2.595-5.665,4.37-11.48,4.835-17.716c0.363-4.863,0.1-9.775-0.646-14.59
						c-1.717-11.082-6.701-21.316-14.978-28.988C163.056,131.915,162.17,132.797,162.761,133.346L162.761,133.346z"/>
				</g>
			</g>
		</g>
	</g>
	<g>
		<g>
			<path style="fill:#DADEF1;" d="M510.125,165.941c4.246,0,8.491,0,12.737,0c10.195,0,20.389,0,30.584,0c12.33,0,24.66,0,36.99,0
				c10.652,0,21.304,0,31.956,0c3.487,0,6.975,0,10.462,0c1.095,0,2.191,0,3.286,0c0.513,0,1.222,0.129,1.722,0
				c0.064-0.017,0.152,0,0.219,0c-0.208-0.208-0.417-0.417-0.625-0.625c0,3.917,0,7.834,0,11.752c0,9.405,0,18.811,0,28.216
				c0,11.334,0,22.669,0,34.003c0,9.837,0,19.673,0,29.51c0,3.251,0,6.502,0,9.753c0,1.51-0.125,3.081,0,4.588
				c0.005,0.066,0,0.134,0,0.2c0,0.804,1.25,0.806,1.25,0c0-3.917,0-7.834,0-11.752c0-9.405,0-18.811,0-28.216
				c0-11.334,0-22.669,0-34.003c0-9.837,0-19.673,0-29.51c0-3.251,0-6.502,0-9.753c0-1.51,0.125-3.081,0-4.588
				c-0.005-0.066,0-0.134,0-0.2c0-0.338-0.286-0.625-0.625-0.625c-4.246,0-8.491,0-12.737,0c-10.194,0-20.389,0-30.584,0
				c-12.33,0-24.66,0-36.99,0c-10.652,0-21.304,0-31.956,0c-3.487,0-6.975,0-10.462,0c-1.652,0-3.359-0.123-5.009,0
				c-0.072,0.005-0.147,0-0.219,0C509.321,164.691,509.32,165.941,510.125,165.941L510.125,165.941z"/>
		</g>
	</g>
	<g>
		<g>
			<g>
				<path style="fill:none;stroke:#B8C1EA;stroke-width:3;stroke-linecap:round;stroke-linejoin:round;" d="M378.826,126.16
					c0.97-1.352,1.94-2.708,2.916-4.062"/>
				
					<path style="fill:none;stroke:#B8C1EA;stroke-width:3;stroke-linecap:round;stroke-linejoin:round;stroke-dasharray:9.3373,18.6747;" d="
					M393.164,107.33c8.209-9.459,17.611-17.197,30.053-20.035c17.623-4.019,37.076,1.11,50.426,13.295
					c9.815,8.958,16.132,21.548,17.837,34.707"/>
				<path style="fill:none;stroke:#B8C1EA;stroke-width:3;stroke-linecap:round;stroke-linejoin:round;" d="M491.905,144.615
					c-0.065,1.665-0.208,3.327-0.429,4.981"/>
			</g>
		</g>
		
			<path style="fill:none;stroke:#B8C1EA;stroke-width:3;stroke-linecap:round;stroke-linejoin:round;stroke-miterlimit:10;stroke-dasharray:10,20;" d="
			M352.964,125.227c-30.26-8.313-65.233,5.734-81.337,32.668c-16.103,26.934-11.922,64.39,9.723,87.111"/>
		<path style="fill:#DADEF1;" d="M533.863,122.528c-3.987-4.536-10.936-5.654-16.45-2.647c-2.697,1.471-4.7,3.639-5.93,6.109
			c-0.3,0.602-0.51,1.241-0.698,1.882l-3.578,12.239c-0.563,1.924,0.821,3.869,2.823,3.968l9.085,0.451
			c0.857,0.043,2.506,0.085,3.981,0.095c2.774,0.019,5.572-0.702,7.89-2.294c0.018-0.012,0.035-0.024,0.053-0.036
			C537.666,137.696,539.129,128.518,533.863,122.528z M519.852,135.621c-3.09-2.807-2.078-7.822,1.915-9.495
			c2.012-0.843,4.37-0.465,5.927,0.949c3.09,2.807,2.078,7.823-1.915,9.496C523.766,137.414,521.409,137.036,519.852,135.621z"/>
		<g>
			
				<ellipse transform="matrix(0.7071 -0.7071 0.7071 0.7071 -20.4408 336.752)" style="fill:#B8C1EA;" cx="396.275" cy="193.05" rx="99.82" ry="99.82"/>
			<g>
				<g>
					<path style="fill:#F5F5F5;" d="M393.956,93.185c-17.022,1.629-33.155,8.026-46.046,19.364
						c-10.544,9.274-18.669,21.302-24.115,34.204c-8.291,19.642-9.655,41.645-6.404,62.557
						c3.089,19.871,10.388,39.513,23.285,55.145c12.094,14.658,29.474,25.417,48.511,27.73c2.368,0.288,4.748,0.433,7.132,0.451
						c0.805,0.006,0.805-1.244,0-1.25c-19.049-0.142-37.154-9.272-50.275-22.795c-13.851-14.275-22.117-33.174-26.147-52.46
						c-4.232-20.254-4.162-41.824,2.318-61.603c4.513-13.775,12.221-26.848,22.428-37.176c11.456-11.592,26.186-19.158,42.227-21.97
						c2.349-0.412,4.712-0.719,7.086-0.947C394.75,94.359,394.758,93.108,393.956,93.185L393.956,93.185z"/>
				</g>
			</g>
			<g>
				<g>
					<path style="fill:#F5F5F5;" d="M393.641,93.27c-12.221,7.039-21.963,18.498-29.446,30.273
						c-3.778,5.945-7.073,12.258-9.441,18.902c-2.774,7.781-4.36,16.023-5.369,24.204c-1.074,8.712-1.385,17.503-1.303,26.275
						c0.082,8.706,0.451,17.431,1.244,26.103c0.785,8.589,2.043,17.155,4.159,25.523c1.901,7.519,4.328,15.142,8.398,21.795
						c7.095,11.599,18.46,19.775,30.734,25.212c1.524,0.675,3.066,1.31,4.619,1.915c0.75,0.292,1.075-0.916,0.332-1.205
						c-12.424-4.836-24.328-12.144-32.279-23.07c-4.405-6.054-7.127-12.946-9.253-20.082c-2.43-8.155-3.96-16.558-4.936-25.004
						c-0.97-8.399-1.424-16.856-1.657-25.305c-0.234-8.464-0.173-16.947,0.506-25.392c0.691-8.579,2.038-17.119,4.369-25.411
						c1.881-6.693,4.665-13.03,8.095-19.072c6.95-12.243,16.289-24.023,27.941-32.101c1.271-0.881,2.578-1.708,3.918-2.48
						C394.969,93.948,394.34,92.868,393.641,93.27L393.641,93.27z"/>
				</g>
			</g>
			<g>
				<g>
					<path style="fill:#F5F5F5;" d="M398.027,292.01c-2.535-25.553-4.017-51.204-4.776-76.868
						c-0.774-26.139-0.793-52.3-0.199-78.443c0.325-14.302,0.838-28.6,1.53-42.889c0.039-0.804-1.211-0.802-1.25,0
						c-1.243,25.66-1.911,51.348-1.943,77.038c-0.033,26.143,0.587,52.294,2.078,78.396c0.816,14.276,1.898,28.537,3.31,42.767
						C396.855,292.803,398.106,292.812,398.027,292.01L398.027,292.01z"/>
				</g>
			</g>
			<g>
				<g>
					<path style="fill:#F5F5F5;" d="M397.844,293.312c13.064-10.26,24.553-22.588,33.41-36.667
						c8.699-13.83,14.773-29.368,17.057-45.579c1.149-8.156,1.236-16.374,0.801-24.588c-0.422-7.972-1.376-15.925-2.975-23.749
						c-2.92-14.287-8.046-28.309-16.213-40.46c-7.653-11.386-17.981-20.861-30.314-26.954c-1.527-0.754-3.08-1.45-4.65-2.108
						c-0.741-0.31-1.065,0.899-0.332,1.205c12.67,5.302,23.598,14.049,31.788,25.053c8.518,11.443,14.068,24.853,17.415,38.661
						c1.831,7.554,3.016,15.257,3.666,23c0.679,8.099,0.927,16.309,0.203,24.413c-1.444,16.162-6.724,31.82-14.765,45.876
						c-8.087,14.138-18.867,26.653-31.269,37.176c-1.543,1.31-3.113,2.586-4.705,3.836
						C396.328,292.924,397.218,293.803,397.844,293.312L397.844,293.312z"/>
				</g>
			</g>
			<g>
				<g>
					<path style="fill:#F5F5F5;" d="M394.793,94.435c7.723-0.005,15.357,2.063,22.504,4.862c8.012,3.138,15.621,7.362,22.658,12.303
						c6.76,4.747,13.111,10.239,18.365,16.636c5.666,6.9,9.527,15.172,12.276,23.623c6.228,19.148,6.436,39.989,3.074,59.71
						c-1.692,9.926-4.382,19.724-8.359,28.985c-3.785,8.814-8.703,17.436-15.157,24.579c-6.043,6.688-13.371,12.19-21.213,16.596
						c-7.869,4.421-16.402,7.809-25.268,9.579c-2.075,0.414-4.166,0.728-6.271,0.937c-0.793,0.079-0.801,1.33,0,1.25
						c8.906-0.885,17.56-3.584,25.656-7.348c8.439-3.923,16.38-9.07,23.243-15.368c14.506-13.311,22.853-32.546,27.111-51.463
						c4.456-19.801,5.241-41.003,0.377-60.803c-2.277-9.269-5.801-18.65-11.167-26.598c-4.549-6.738-10.498-12.506-16.853-17.53
						c-6.916-5.468-14.473-10.159-22.473-13.869c-7.298-3.385-15.057-6.057-23.076-7.007c-1.802-0.214-3.612-0.325-5.427-0.324
						C393.989,93.185,393.987,94.435,394.793,94.435L394.793,94.435z"/>
				</g>
			</g>
			<g>
				<g>
					<path style="fill:#F5F5F5;" d="M296.595,197.727c25.852,0,51.703,0,77.555,0c26.159,0,52.317,0,78.476,0
						c14.489,0,28.979,0,43.468,0c0.804,0,0.806-1.25,0-1.25c-25.852,0-51.703,0-77.555,0c-26.159,0-52.318,0-78.476,0
						c-14.489,0-28.979,0-43.468,0C295.791,196.477,295.789,197.727,296.595,197.727L296.595,197.727z"/>
				</g>
			</g>
			<g>
				<g>
					<path style="fill:#F5F5F5;" d="M311.224,141.402c5.578,0,11.155,0,16.733,0c13.391,0,26.781,0,40.171,0
						c16.19,0,32.38,0,48.57,0c13.919,0,27.838,0,41.757,0c4.63,0,9.26,0,13.89,0c2.157,0,4.347,0.11,6.502,0
						c0.093-0.005,0.188,0,0.281,0c0.804,0,0.806-1.25,0-1.25c-5.578,0-11.155,0-16.733,0c-13.391,0-26.781,0-40.171,0
						c-16.19,0-32.38,0-48.57,0c-13.919,0-27.838,0-41.757,0c-4.63,0-9.26,0-13.89,0c-2.157,0-4.347-0.11-6.502,0
						c-0.093,0.005-0.188,0-0.281,0C310.42,140.152,310.419,141.402,311.224,141.402L311.224,141.402z"/>
				</g>
			</g>
			<g>
				<g>
					<path style="fill:#F5F5F5;" d="M319.57,254.052c19.988,0,39.977,0,59.965,0c19.905,0,39.81,0,59.716,0
						c11.243,0,22.487,0,33.73,0c0.804,0,0.806-1.25,0-1.25c-19.988,0-39.977,0-59.965,0c-19.905,0-39.81,0-59.716,0
						c-11.243,0-22.487,0-33.73,0C318.765,252.802,318.764,254.052,319.57,254.052L319.57,254.052z"/>
				</g>
			</g>
		</g>
	</g>
	<g>
		<g>
			<g>
				<path style="fill:#EF6856;" d="M139.065,381.142H70.585c-1.208,0-2.186-0.979-2.186-2.186v-49.344
					c0-1.976,1.602-3.577,3.577-3.577h67.088c1.207,0,2.186,0.979,2.186,2.186v50.735
					C141.251,380.163,140.272,381.142,139.065,381.142z"/>
			</g>
			<g>
				<g>
					<path style="fill:#26244A;" d="M117.122,326.377c0,18.278,0,36.556,0,54.833c0,0.804,1.25,0.806,1.25,0
						c0-18.278,0-36.556,0-54.833C118.372,325.573,117.122,325.572,117.122,326.377L117.122,326.377z"/>
				</g>
			</g>
			<rect x="87.678" y="326.034" style="fill:#DADEF1;" width="10.143" height="10.143"/>
			<rect x="126.005" y="370.999" style="fill:#DADEF1;" width="10.143" height="10.143"/>
		</g>
		<g>
			<g>
				<path style="fill:#F2A441;" d="M206.456,380.512h-68.479c-1.208,0-2.186-0.979-2.186-2.186v-49.344
					c0-1.976,1.602-3.577,3.577-3.577h67.088c1.208,0,2.186,0.979,2.186,2.186v50.735
					C208.643,379.533,207.664,380.512,206.456,380.512z"/>
			</g>
			<g>
				<g>
					<path style="fill:#26244A;" d="M184.514,325.747c0,18.278,0,36.556,0,54.833c0,0.804,1.25,0.806,1.25,0
						c0-18.278,0-36.556,0-54.833C185.764,324.943,184.514,324.941,184.514,325.747L184.514,325.747z"/>
				</g>
			</g>
			<rect x="155.07" y="325.404" style="fill:#DADEF1;" width="10.143" height="10.143"/>
			<rect x="193.396" y="370.369" style="fill:#DADEF1;" width="10.143" height="10.143"/>
		</g>
		<g>
			<g>
				<path style="fill:#F2A441;" d="M138.008,436.51H69.529c-1.208,0-2.186-0.979-2.186-2.186v-49.344
					c0-1.976,1.602-3.577,3.577-3.577h67.088c1.208,0,2.186,0.979,2.186,2.186v50.735
					C140.195,435.531,139.216,436.51,138.008,436.51z"/>
			</g>
			<g>
				<g>
					<path style="fill:#26244A;" d="M116.066,381.745c0,18.278,0,36.556,0,54.834c0,0.804,1.25,0.806,1.25,0
						c0-18.278,0-36.556,0-54.834C117.316,380.941,116.066,380.94,116.066,381.745L116.066,381.745z"/>
				</g>
			</g>
			<rect x="86.622" y="381.402" style="fill:#DADEF1;" width="10.143" height="10.143"/>
			<rect x="124.948" y="426.367" style="fill:#DADEF1;" width="10.143" height="10.143"/>
			<path style="fill:none;stroke:#26244A;stroke-miterlimit:10;" d="M67.404,435.651l-0.062-52.129c0-1.257,1.019-2.277,2.277-2.277
				l70.575,0.157"/>
		</g>
		<g>
			<g>
				<path style="fill:#F2A441;" d="M206.468,436.51h-68.479c-1.208,0-2.186-0.979-2.186-2.186v-49.344
					c0-1.976,1.602-3.577,3.577-3.577h67.088c1.208,0,2.186,0.979,2.186,2.186v50.735
					C208.655,435.531,207.676,436.51,206.468,436.51z"/>
			</g>
			<g>
				<g>
					<path style="fill:#26244A;" d="M184.526,381.745c0,18.278,0,36.556,0,54.834c0,0.804,1.25,0.806,1.25,0
						c0-18.278,0-36.556,0-54.834C185.776,380.941,184.526,380.94,184.526,381.745L184.526,381.745z"/>
				</g>
			</g>
			<rect x="155.082" y="381.402" style="fill:#DADEF1;" width="10.143" height="10.143"/>
			<rect x="193.408" y="426.367" style="fill:#DADEF1;" width="10.143" height="10.143"/>
			<path style="fill:none;stroke:#26244A;stroke-miterlimit:10;" d="M135.864,435.651l-0.061-52.129
				c0-1.257,1.019-2.277,2.277-2.277l70.575,0.157"/>
		</g>
		<path style="fill:#545DBF;" d="M211.452,440.21H62.233c-1.003,0-1.816-0.813-1.816-1.816l0,0c0-1.003,0.813-1.816,1.816-1.816
			h149.219c1.003,0,1.816,0.813,1.816,1.816l0,0C213.268,439.397,212.455,440.21,211.452,440.21z"/>
		<path style="fill:#545DBF;" d="M211.452,458.347H62.233c-1.003,0-1.816-0.813-1.816-1.816l0,0c0-1.003,0.813-1.816,1.816-1.816
			h149.219c1.003,0,1.816,0.813,1.816,1.816l0,0C213.268,457.534,212.455,458.347,211.452,458.347z"/>
		<rect x="62.914" y="439.169" style="fill:#545DBF;" width="18.595" height="15.547"/>
		<rect x="127.844" y="439.169" style="fill:#545DBF;" width="18.595" height="15.547"/>
		<rect x="192.774" y="439.169" style="fill:#545DBF;" width="18.595" height="15.547"/>
		<g>
			<g>
				<path style="fill:#26244A;" d="M62.501,441.122c19.327,0,38.654,0,57.981,0c19.41,0,38.82,0,58.231,0
					c10.913,0,21.826,0,32.739,0c0.804,0,0.806-1.25,0-1.25c-19.327,0-38.654,0-57.981,0c-19.41,0-38.821,0-58.231,0
					c-10.913,0-21.826,0-32.739,0C61.697,439.872,61.696,441.122,62.501,441.122L62.501,441.122z"/>
			</g>
		</g>
		<g>
			<g>
				<path style="fill:#26244A;" d="M62.501,455.34c19.327,0,38.654,0,57.981,0c19.41,0,38.82,0,58.231,0c10.913,0,21.826,0,32.739,0
					c0.804,0,0.806-1.25,0-1.25c-19.327,0-38.654,0-57.981,0c-19.41,0-38.821,0-58.231,0c-10.913,0-21.826,0-32.739,0
					C61.697,454.09,61.696,455.34,62.501,455.34L62.501,455.34z"/>
			</g>
		</g>
		<g>
			<g>
				<path style="fill:#26244A;" d="M69.905,326.023c18.058,0,36.115,0,54.173,0c17.786,0,35.571,0,53.357,0
					c10.277,0,20.554,0,30.831,0c0.804,0,0.806-1.25,0-1.25c-18.058,0-36.115,0-54.173,0c-17.786,0-35.571,0-53.357,0
					c-10.277,0-20.554,0-30.83,0C69.101,324.773,69.099,326.023,69.905,326.023L69.905,326.023z"/>
			</g>
		</g>
		<g>
			<g>
				<path style="fill:#26244A;" d="M136.488,380.217c0-18.273,0-36.546,0-54.819c0-0.804-1.25-0.806-1.25,0
					c0,18.273,0,36.546,0,54.819C135.238,381.021,136.488,381.022,136.488,380.217L136.488,380.217z"/>
			</g>
		</g>
	</g>
	<g>
		<g>
			<g>
				<path style="fill:#26244A;" d="M333.528,424.999c0,10.711-4.331,24.336-10.766,31.041c-2.999,3.125-12.111,2.762-19.156,2.762
					c-16.526,0-29.922-15.134-29.922-33.803s13.397-33.803,29.922-33.803c1.258,0,11.865-0.164,13.081,0.007
					C331.461,393.269,333.528,407.751,333.528,424.999z"/>
				<ellipse style="fill:#545DBF;" cx="316.687" cy="425.006" rx="29.922" ry="33.803"/>
				<ellipse style="fill:#B8C1EA;" cx="316.687" cy="425.006" rx="13.081" ry="15.163"/>
			</g>
			<rect x="234.074" y="425.359" style="fill:#26244A;" width="129.776" height="10.086"/>
			<rect x="209.318" y="367.806" style="fill:#26244A;" width="475.62" height="59.72"/>
		</g>
		<g>
			<g>
				<path style="fill:#26244A;" d="M665.019,425.482c0,10.711-4.331,24.336-10.766,31.041c-2.999,3.125-12.112,2.762-19.156,2.762
					c-16.526,0-29.922-15.134-29.922-33.803c0-18.669,13.397-33.803,29.922-33.803c1.258,0,11.865-0.164,13.081,0.007
					C662.951,393.751,665.019,408.234,665.019,425.482z"/>
				<ellipse style="fill:#545DBF;" cx="648.178" cy="425.488" rx="29.922" ry="33.803"/>
				<ellipse style="fill:#B8C1EA;" cx="648.178" cy="425.488" rx="13.081" ry="15.163"/>
			</g>
			<path style="fill:#EF6856;" d="M697.14,337.306c-2.133-6.802-8.332-11.531-15.416-12.33l-42.127-4.752l-23.29-47.063
				c-0.798-1.612-1.886-3.064-3.215-4.276c-4.162-3.795-12.873-3.183-16.078-3.195c-10.706-0.038-26.08-0.072-26.08,0.001v19.752
				V419.93c0,0,28.857,0,34.818,0c4.664,0,7.411-11.858,8.21-15.895c0.038-0.19,0.058-0.297,0.069-0.357
				c0.012-0.053,0.027-0.115,0.044-0.191c3.173-13.891,7.451-15.875,9.849-18.501c4.997-5.471,14.237-7.135,20.97-7.135
				c29.111-1.666,34.79,23.252,34.79,23.252l2.524,14.042h15.787v-19.637v-52.609C697.995,340.967,697.698,339.085,697.14,337.306z"
				/>
			<rect x="570.934" y="350.797" style="fill:#F2A441;" width="127.061" height="14.759"/>
			<g>
				<g>
					<path style="fill:#26244A;" d="M570.934,406.048c9.665,0,19.33,0,28.995,0c1.381,0,2.762,0,4.144,0
						c0.331,0,0.634-0.286,0.625-0.625c-0.108-3.912,0.588-7.947,1.612-11.703c2.108-7.733,6.449-14.921,13.391-19.194
						c5.312-3.27,11.522-4.537,17.698-4.645c0.337-0.006,0.625-0.282,0.625-0.625c-0.008-9.005-0.017-18.01-0.025-27.015
						c-0.004-4.632-0.009-9.263-0.013-13.895c-0.001-0.624,0.094-1.308-0.117-1.898c-0.306-0.855-0.845-1.686-1.251-2.495
						c-4.894-9.762-9.789-19.523-14.683-29.285c-2.006-4.001-4.012-8.002-6.019-12.004c-0.371-0.739-0.719-1.496-1.134-2.211
						c-2.154-3.718-5.962-6.174-10.015-7.381c-4.598-1.37-9.694-0.924-14.441-0.924c-5.365,0-10.73,0-16.096-0.001
						c-0.349,0-0.698,0-1.047,0c-0.804,0-0.806,1.25,0,1.25c8.328,0,16.656-0.016,24.984,0.001
						c6.587,0.013,13.114,2.805,16.163,8.887c1.689,3.368,3.378,6.737,5.067,10.105c5.02,10.013,10.041,20.026,15.061,30.038
						c0.654,1.305,1.309,2.61,1.963,3.915c0.127,0.254,0.258,0.506,0.382,0.761c-0.152-0.312-0.039-0.305-0.067,0.09
						c-0.094,1.333,0.003,2.708,0.004,4.043c0.002,2.457,0.005,4.915,0.007,7.372c0.009,10.014,0.019,20.028,0.028,30.042
						c0,0.201,0,0.403,0.001,0.604c0.208-0.208,0.417-0.417,0.625-0.625c-10.362,0.182-20.261,3.9-26.533,12.436
						c-4.2,5.717-6.387,12.756-7.161,19.751c-0.168,1.522-0.301,3.073-0.258,4.606c0.208-0.208,0.417-0.417,0.625-0.625
						c-9.665,0-19.33,0-28.995,0c-1.381,0-2.763,0-4.144,0C570.13,404.798,570.128,406.048,570.934,406.048L570.934,406.048z"/>
				</g>
			</g>
			<g>
				<path style="fill:#DADEF1;" d="M574.112,318.683c0.44-11.722,0.88-23.443,1.321-35.165c0.063-1.683,0.205-3.554,1.383-4.695
					c1.115-1.079,2.784-1.14,4.3-1.14c4.496-0.001,8.992-0.003,13.488-0.004c3.807-0.001,7.794,0.043,11.146,1.941
					c3.316,1.877,5.706,5.192,7.601,8.613c6.909,12.471,10.949,21.119,16.18,31.872c1.909,3.926-0.75,8.6-4.944,8.649
					c-13.736,0.159-30.685,1.239-42.312,0.434c-2.108-0.146-4.377-0.363-5.978-1.812
					C574.057,325.349,573.996,321.788,574.112,318.683z"/>
			</g>
			<path style="opacity:0.5;fill:#FFFFFF;" d="M624.099,308.854l-23.649,20.261c-6.651,0.119-20.81,1.139-23.595-1.303
				l39.999-33.113L624.099,308.854z"/>
			<polygon style="opacity:0.5;fill:#FFFFFF;" points="613.352,288.232 574.078,321.491 574.359,312.118 609.577,282.764 			"/>
			<path style="fill:#26244A;" d="M625.69,328.823v-16.803l4.308,8.883c0.108,0.222,0.163,0.465,0.163,0.711v5.578
				c0,0.9-0.73,1.63-1.63,1.63H625.69z"/>
			<g>
				<g>
					<path style="fill:#26244A;" d="M615.159,311.797c1.584,1.635,2.966,3.523,4.422,5.27c2.235,2.681,4.467,5.365,6.697,8.05
						c0.509,0.612,1.018,1.225,1.526,1.837c0.514,0.62,1.394-0.269,0.884-0.884c-3.642-4.385-7.282-8.771-10.941-13.142
						c-0.561-0.67-1.096-1.387-1.705-2.016C615.482,310.334,614.598,311.219,615.159,311.797L615.159,311.797z"/>
				</g>
			</g>
			<path style="fill:#EF6856;" d="M609.309,308.735v13.77c0,1.691,1.215,3.061,2.714,3.061h4.705c1.499,0,2.714-1.371,2.714-3.061
				v-13.543c0-1.64-1.146-2.989-2.598-3.059l-4.705-0.227C610.596,305.602,609.309,306.993,609.309,308.735z"/>
			<path style="fill:#F2A441;" d="M683.387,325.24c0,0-2.239,10.977,2.184,13.004c4.423,2.027,12.029,0.854,12.029,0.854
				S695.953,326.432,683.387,325.24z"/>
			<path style="fill:#26244A;" d="M699.719,426.955H682.82l-8.16-36.23h25.058c3.301,0,5.977,2.676,5.977,5.977v24.276
				C705.695,424.279,703.019,426.955,699.719,426.955z"/>
			<path style="fill:#DADEF1;" d="M697.995,383.764h-7.44c-2.431,0-4.403-1.971-4.403-4.403v0c0-2.431,1.971-4.403,4.403-4.403h7.44
				V383.764z"/>
		</g>
		<g>
			<rect x="186.269" y="227.069" style="fill:#B8C1EA;" width="100.279" height="195.878"/>
			<path style="fill:#DADEF1;" d="M286.548,418.121V227.119h273.31c6.896,0,12.486,5.59,12.486,12.486v178.516H439.822v-4.357
				c0-19.212-15.575-34.787-34.787-34.787h-20.951c-13.944,0-22.094,9.339-23.762,23.183l-5.39,15.96H286.548z"/>
			<rect x="194.963" y="241.752" style="fill:#545DBF;" width="84.178" height="61.518"/>
			<rect x="194.963" y="303.27" style="fill:#545DBF;" width="84.178" height="107.654"/>
			<polygon style="fill:#26244A;" points="279.142,332.071 194.963,303.27 279.142,303.27 			"/>
			<g>
				<path style="fill:#F2A441;" d="M285.011,402.111c0,0.989-0.801,1.79-1.79,1.79c-0.988,0-1.79-0.801-1.79-1.79
					c0-0.989,0.801-1.79,1.79-1.79C284.209,400.321,285.011,401.122,285.011,402.111z"/>
				<path style="fill:#F2A441;" d="M285.011,407.412c0,0.989-0.801,1.79-1.79,1.79c-0.988,0-1.79-0.801-1.79-1.79
					c0-0.988,0.801-1.79,1.79-1.79C284.209,405.622,285.011,406.423,285.011,407.412z"/>
				<path style="fill:#F2A441;" d="M285.011,412.713c0,0.989-0.801,1.79-1.79,1.79c-0.988,0-1.79-0.801-1.79-1.79
					c0-0.988,0.801-1.79,1.79-1.79C284.209,410.923,285.011,411.725,285.011,412.713z"/>
			</g>
			<g>
				<path style="fill:#F2A441;" d="M192.202,402.111c0,0.989-0.801,1.79-1.79,1.79c-0.989,0-1.79-0.801-1.79-1.79
					c0-0.989,0.801-1.79,1.79-1.79C191.401,400.321,192.202,401.122,192.202,402.111z"/>
				<path style="fill:#F2A441;" d="M192.202,407.412c0,0.989-0.801,1.79-1.79,1.79c-0.989,0-1.79-0.801-1.79-1.79
					c0-0.988,0.801-1.79,1.79-1.79C191.401,405.622,192.202,406.423,192.202,407.412z"/>
				<path style="fill:#F2A441;" d="M192.202,412.713c0,0.989-0.801,1.79-1.79,1.79c-0.989,0-1.79-0.801-1.79-1.79
					c0-0.988,0.801-1.79,1.79-1.79C191.401,410.923,192.202,411.725,192.202,412.713z"/>
			</g>
			<g>
				<g>
					<path style="fill:#26244A;" d="M195.718,290.488c21.549,0,43.097,0,64.646,0c6.133,0,12.266,0,18.399,0
						c0.804,0,0.806-1.25,0-1.25c-21.549,0-43.097,0-64.646,0c-6.133,0-12.266,0-18.399,0
						C194.914,289.238,194.913,290.488,195.718,290.488L195.718,290.488z"/>
				</g>
			</g>
			<g>
				<g>
					<path style="fill:#26244A;" d="M195.718,276.247c21.549,0,43.097,0,64.646,0c6.133,0,12.266,0,18.399,0
						c0.804,0,0.806-1.25,0-1.25c-21.549,0-43.097,0-64.646,0c-6.133,0-12.266,0-18.399,0
						C194.914,274.997,194.913,276.247,195.718,276.247L195.718,276.247z"/>
				</g>
			</g>
			<g>
				<g>
					<path style="fill:#26244A;" d="M195.718,262.007c21.549,0,43.097,0,64.646,0c6.133,0,12.266,0,18.399,0
						c0.804,0,0.806-1.25,0-1.25c-21.549,0-43.097,0-64.646,0c-6.133,0-12.266,0-18.399,0
						C194.914,260.757,194.913,262.007,195.718,262.007L195.718,262.007z"/>
				</g>
			</g>
			<g>
				<g>
					<path style="fill:#26244A;" d="M195.342,248.726c21.549,0,43.097,0,64.646,0c6.133,0,12.266,0,18.399,0
						c0.804,0,0.806-1.25,0-1.25c-21.549,0-43.097,0-64.646,0c-6.133,0-12.266,0-18.399,0
						C194.537,247.476,194.536,248.726,195.342,248.726L195.342,248.726z"/>
				</g>
			</g>
			<rect x="192.102" y="410.923" style="fill:#DADEF1;" width="87.039" height="5.982"/>
			<g>
				<path style="fill:#26244A;" d="M420.765,424.424c0,10.711-4.331,24.336-10.766,31.041c-2.999,3.125-12.112,2.762-19.156,2.762
					c-16.526,0-29.923-15.134-29.923-33.803s13.397-33.803,29.923-33.803c1.257,0,11.865-0.164,13.081,0.007
					C418.697,392.694,420.765,407.176,420.765,424.424z"/>
				<ellipse style="fill:#545DBF;" cx="403.924" cy="424.431" rx="29.922" ry="33.803"/>
				<ellipse style="fill:#B8C1EA;" cx="403.924" cy="424.431" rx="13.081" ry="15.163"/>
			</g>
			<g>
				<g>
					<path style="fill:#F2A441;" d="M270.648,410.855h-68.479c-1.208,0-2.186-0.979-2.186-2.186v-49.344
						c0-1.976,1.602-3.577,3.577-3.577h67.088c1.207,0,2.186,0.979,2.186,2.186v50.735
						C272.835,409.876,271.856,410.855,270.648,410.855z"/>
				</g>
				<g>
					<g>
						<path style="fill:#26244A;" d="M248.706,356.09c0,18.278,0,36.556,0,54.834c0,0.804,1.25,0.806,1.25,0
							c0-18.278,0-36.556,0-54.834C249.956,355.286,248.706,355.284,248.706,356.09L248.706,356.09z"/>
					</g>
				</g>
				<rect x="219.262" y="355.747" style="fill:#DADEF1;" width="10.143" height="10.143"/>
				<rect x="257.588" y="400.712" style="fill:#DADEF1;" width="10.143" height="10.143"/>
			</g>
			<path style="fill:#26244A;" d="M244.217,298.197h-13.953c-0.901,0-1.631-0.73-1.631-1.631l0,0c0-0.901,0.73-1.631,1.631-1.631
				h13.953c0.901,0,1.631,0.73,1.631,1.631l0,0C245.848,297.467,245.118,298.197,244.217,298.197z"/>
			<g>
				<g>
					<path style="fill:#FFFFFF;" d="M287.42,298.822c14.944,0.263,27.488-9.757,37.356-19.986
						c11.073-11.477,19.499-25.206,30.702-36.583c6.011-6.104,12.878-11.586,20.99-14.582c0.748-0.276,0.425-1.485-0.332-1.205
						c-13.972,5.16-24.223,17.021-33.261,28.353c-9.949,12.473-19.249,25.568-32.473,34.865c-6.808,4.787-14.548,8.036-22.982,7.888
						C286.615,297.558,286.615,298.808,287.42,298.822L287.42,298.822z"/>
				</g>
			</g>
			<g>
				<g>
					<path style="fill:#FFFFFF;" d="M404.805,228.184c-12.525,10.752-24.677,21.947-36.22,33.75
						c-11.457,11.715-22.309,24.031-32.285,37.035c-5.013,6.534-9.8,13.242-14.32,20.126c-4.423,6.737-8.71,13.703-11.312,21.376
						c-2.279,6.719-3.104,13.895-1.365,20.836c1.498,5.976,4.787,11.667,9.911,15.227c6.121,4.252,14.011,4.491,20.948,2.301
						c7.532-2.378,13.783-7.459,19.349-12.903c12.031-11.768,22.945-24.612,35.43-35.931c12.14-11.006,25.772-20.728,41.317-26.265
						c7.511-2.675,15.429-4.357,23.416-4.535c6.329-0.141,13.807,0.95,18.162,6.042c5.386,6.297,2.656,15.184-0.87,21.657
						c-3.784,6.944-8.883,13.303-14.121,19.196c-10.596,11.923-22.96,22.112-35.545,31.848c-3.169,2.452-6.359,4.878-9.55,7.302
						c-0.632,0.48-0.01,1.566,0.631,1.079c12.629-9.594,25.292-19.24,36.682-30.311c5.664-5.506,10.991-11.365,15.759-17.667
						c4.549-6.013,9.271-12.628,10.845-20.143c1.392-6.642-0.657-13.318-6.645-16.927c-5.712-3.443-12.852-3.648-19.309-3.111
						c-15.772,1.312-30.666,7.877-43.673,16.656c-13.893,9.377-25.764,21.357-37.28,33.442
						c-5.744,6.028-11.335,12.251-17.378,17.983c-5.91,5.606-12.7,10.625-20.853,12.227c-7.496,1.473-15.154-0.472-20.304-6.267
						c-4.405-4.957-6.545-11.766-6.64-18.325c-0.118-8.06,2.888-15.887,6.638-22.892c3.872-7.232,8.568-14.056,13.303-20.743
						c9.618-13.582,20.247-26.431,31.56-38.631c11.225-12.105,23.124-23.575,35.45-34.552c3.025-2.694,6.078-5.358,9.152-7.997
						C406.3,228.544,405.412,227.663,404.805,228.184L404.805,228.184z"/>
				</g>
			</g>
			<g>
				<g>
					<path style="fill:#FFFFFF;" d="M451.59,415.044c10.65-17.376,26.301-31.654,44.855-40.18c4.676-2.149,9.516-3.852,14.456-5.284
						c5.426-1.573,10.926-2.908,16.266-4.766c5.098-1.775,10.034-4.048,14.397-7.257c4.084-3.004,7.646-6.649,10.746-10.651
						c3.868-4.995,6.87-10.533,9.899-16.057c3.27-5.961,6.462-11.966,9.822-17.877c0.398-0.7-0.681-1.331-1.079-0.631
						c-2.967,5.22-5.803,10.513-8.678,15.784c-2.763,5.066-5.445,10.226-8.726,14.982c-3.026,4.387-6.56,8.454-10.675,11.855
						c-4.401,3.637-9.471,6.255-14.816,8.21c-10.054,3.676-20.639,5.533-30.489,9.827c-9.043,3.942-17.46,9.266-24.989,15.635
						c-8.679,7.342-16.129,16.089-22.068,25.778C450.089,415.101,451.17,415.729,451.59,415.044L451.59,415.044z"/>
				</g>
			</g>
			<g>
				<g>
					<path style="fill:#FFFFFF;" d="M450.721,228.374c-8.226,7.73-18.213,18.177-14.504,30.602c1.624,5.439,6.11,9.221,10.97,11.787
						c5.355,2.828,11.25,4.598,17.221,5.522c12.783,1.978,25.747,0.234,38.285-2.477c13.577-2.936,27.051-7.203,40.936-8.462
						c6.524-0.592,14.622-0.441,19.852,4.112c4.423,3.849,5.823,10.154,7.407,15.537c0.227,0.77,1.433,0.442,1.205-0.332
						c-1.384-4.702-2.619-9.796-5.613-13.784c-3.118-4.153-8.086-6.013-13.097-6.691c-6.242-0.846-12.602,0.089-18.757,1.168
						c-6.767,1.187-13.447,2.806-20.123,4.418c-12.846,3.103-25.827,6.199-39.126,6.116c-6.287-0.04-12.585-0.793-18.62-2.595
						c-5.629-1.681-11.605-4.211-15.724-8.543c-4.947-5.202-5.187-12.623-2.607-19.032c2.669-6.628,8.078-11.67,13.177-16.461
						C452.193,228.706,451.308,227.823,450.721,228.374L450.721,228.374z"/>
				</g>
			</g>
			<g>
				<g>
					<path style="fill:#FFFFFF;" d="M286.931,392.04c5.564-1.645,11.25-2.956,17.01-3.688c5.234-0.666,10.549-0.874,15.728,0.302
						c4.67,1.06,9.167,3.182,12.517,6.662c2.925,3.039,5.323,6.602,7.555,10.166c2.354,3.758,4.582,7.656,6.328,11.739
						c0.315,0.737,1.393,0.101,1.079-0.631c-1.63-3.809-3.686-7.452-5.855-10.976c-2.269-3.688-4.719-7.349-7.642-10.558
						c-6.949-7.631-17.692-9.171-27.487-8.205c-6.633,0.655-13.181,2.097-19.566,3.985
						C285.829,391.063,286.157,392.269,286.931,392.04L286.931,392.04z"/>
				</g>
			</g>
			<g>
				<g>
					<path style="fill:#FFFFFF;" d="M490.931,420.534c8.462-8.113,18.513-14.527,29.438-18.785
						c5.379-2.097,10.959-3.682,16.641-4.704c5.752-1.035,11.6-1.426,17.39-2.191c6.224-0.822,12.478-1.949,18.259-4.485
						c0.735-0.322,0.099-1.4-0.631-1.079c-10.863,4.766-23.04,4.445-34.538,6.408c-11.3,1.929-22.218,6.069-31.997,12.043
						c-5.561,3.397-10.742,7.401-15.445,11.91C489.465,420.208,490.35,421.091,490.931,420.534L490.931,420.534z"/>
				</g>
			</g>
			<g>
				<path style="fill:#B8C1EA;" d="M183.752,424.611c7.504-0.237,15.043-0.019,22.548,0.017c14.865,0.072,29.73,0.171,44.594,0.272
					c15.9,0.108,31.8,0.223,47.701,0.336c10.832,0.077,21.664,0.162,32.497,0.213c4.901,0.023,9.77-0.027,14.608-1.005
					c6.564-1.328,12.448-4.694,16.031-10.472c3.001-4.84,4.013-10.977,6.208-15.855c2.265-5.034,5.523-9.429,10.782-11.607
					c6-2.485,12.928-2.343,19.3-2.424c6.381-0.081,13.212-0.046,19.038,2.915c2.51,1.276,4.725,2.879,6.639,4.948
					c1.87,2.022,3.074,4.539,4.225,7.125c0.028,0.063,0.373,0.856,0.12,0.259c0.083,0.197,0.164,0.395,0.243,0.593
					c0.169,0.425,0.336,0.85,0.495,1.279c0.385,1.038,0.735,2.088,1.093,3.135c0.495,1.443,0.982,2.876,1.575,4.28
					c1.467,3.476,3.417,6.768,6.033,9.513c3.145,3.3,7.224,5.31,11.814,5.332c1.274,0.006,2.548-0.017,3.822-0.026
					c12.081-0.082,24.162-0.167,36.243-0.252c15.964-0.112,31.929-0.224,47.893-0.336c10.136-0.071,20.273-0.142,30.409-0.214
					c0.511-0.004,1.023-0.007,1.534-0.011c5.861-0.041,5.874-9.153,0-9.111c-7.305,0.051-14.61,0.103-21.915,0.154
					c-15.451,0.108-30.902,0.217-46.354,0.325c-13.862,0.097-27.724,0.194-41.586,0.29c-3.361,0.023-6.725,0.087-10.087,0.069
					c-0.095,0-0.189,0.003-0.284,0.002c-0.218-0.003-0.434-0.015-0.651-0.021c-0.729-0.02,0.647,0.161-0.047-0.003
					c-0.472-0.111-0.929-0.233-1.388-0.388c0.788,0.266-0.668-0.366-0.918-0.52c-0.219-0.134-1.208-0.877-0.563-0.35
					c-0.419-0.342-0.818-0.711-1.199-1.094c-0.333-0.334-0.64-0.688-0.956-1.037c-0.134-0.148-0.258-0.305-0.384-0.459
					c0.617,0.75-0.168-0.236-0.232-0.327c-0.969-1.37-1.806-2.833-2.528-4.347c-0.138-0.29-0.26-0.59-0.403-0.878
					c-0.333-0.672,0.396,1.128,0.144,0.342c-0.091-0.285-0.217-0.571-0.319-0.853c-1.787-4.936-3.269-10.172-6.093-14.647
					c-3.554-5.632-8.986-9.679-15.118-12.125c-6.603-2.634-13.976-2.774-20.988-2.665c-6.861,0.107-14.126,0.194-20.64,2.601
					c-6.264,2.314-11.261,6.543-14.706,12.26c-3.124,5.185-4.313,11.004-6.577,16.535c-0.884,2.159-2.269,4.522-4.228,6.066
					c-2.116,1.669-4.693,2.508-7.3,3.085c-3.073,0.68-6.219,0.819-9.359,0.819c-8.608,0-17.217-0.094-25.825-0.153
					c-15.288-0.106-30.576-0.217-45.864-0.324c-15.7-0.11-31.4-0.217-47.1-0.305c-9.837-0.055-19.676-0.145-29.513-0.096
					c-0.823,0.004-1.646,0.004-2.469,0.03C177.903,415.684,177.877,424.796,183.752,424.611L183.752,424.611z"/>
			</g>
		</g>
	</g>
	<path style="fill:#DADEF1;" d="M642.212,283.339c0,2.341-1.898,4.239-4.238,4.239c-2.341,0-4.239-1.898-4.239-4.239
		c0-2.341,1.898-4.238,4.239-4.238C640.315,279.1,642.212,280.998,642.212,283.339z"/>
	<path style="fill:#DADEF1;" d="M512.585,165.316c0,2.341-1.898,4.238-4.239,4.238c-2.341,0-4.239-1.898-4.239-4.238
		c0-2.341,1.898-4.239,4.239-4.239C510.687,161.078,512.585,162.975,512.585,165.316z"/>
	<g>
		<g>
			<g>
				<path style="fill:#26244A;" d="M672.503,234.413l-75.997-0.148c-4.441-0.009-8.034-3.616-8.026-8.057l0.286-146.628
					c0.009-4.441,3.616-8.034,8.057-8.026l75.997,0.148c4.441,0.009,8.034,3.616,8.026,8.057l-0.286,146.628
					C680.552,230.829,676.945,234.422,672.503,234.413z"/>
				
					<rect x="592.568" y="86.356" transform="matrix(1 0.0019 -0.0019 1 0.2891 -1.2361)" style="fill:#FFFFFF;" width="83.854" height="122.733"/>
				<path style="fill:#545DBF;" d="M645.33,80.523l-21.063-0.244c-0.463-0.005-0.833-0.385-0.828-0.847l0.002-0.184
					c0.005-0.463,0.385-0.833,0.848-0.828l21.063,0.244c0.463,0.005,0.833,0.385,0.828,0.848l-0.002,0.184
					C646.172,80.157,645.792,80.528,645.33,80.523z"/>
				<g>
					<path style="fill:#545DBF;" d="M643.244,220.916c-0.051,4.377-3.64,7.884-8.017,7.834c-4.377-0.051-7.884-3.64-7.834-8.017
						c0.051-4.377,3.64-7.884,8.018-7.834C639.787,212.949,643.294,216.539,643.244,220.916z"/>
				</g>
				<g>
					<g>
						<path style="fill:#F2A441;" d="M663.844,173.128l-56.177-0.109c-1.208-0.002-2.185-0.983-2.182-2.191l0.078-40.039
							c0.004-1.976,1.609-3.574,3.584-3.57l54.786,0.107c1.207,0.002,2.184,0.983,2.182,2.191l-0.081,41.43
							C666.032,172.154,665.052,173.131,663.844,173.128z"/>
					</g>
					<g>
						<g>
							<path style="fill:#26244A;" d="M645.959,127.577c-0.03,15.191-0.059,30.383-0.089,45.574c-0.002,0.804,1.248,0.806,1.25,0
								c0.03-15.191,0.059-30.383,0.089-45.574C647.211,126.773,645.961,126.772,645.959,127.577L645.959,127.577z"/>
						</g>
					</g>
					
						<rect x="621.585" y="127.251" transform="matrix(1 0.002 -0.002 1 0.2585 -1.2246)" style="fill:#DADEF1;" width="8.43" height="8.43"/>
					
						<rect x="653.367" y="164.686" transform="matrix(1 0.0019 -0.0019 1 0.3298 -1.2789)" style="fill:#DADEF1;" width="8.43" height="8.43"/>
				</g>
			</g>
		</g>
		
			<ellipse transform="matrix(0.1419 -0.9899 0.9899 0.1419 380.3581 776.5832)" style="fill:#5BC55C;" cx="638.112" cy="168.901" rx="21.11" ry="21.11"/>
		<g>
			<g>
				<path style="fill:#FFFFFF;" d="M627.904,169.741c2.058,2.291,4.116,4.582,6.174,6.873c0.877,0.976,2.656,0.954,3.535,0
					c3.152-3.419,6.304-6.838,9.456-10.257c0.445-0.483,0.89-0.966,1.335-1.449c0.915-0.992,0.982-2.553,0-3.536
					c-0.927-0.927-2.617-0.996-3.535,0c-3.152,3.419-6.304,6.838-9.456,10.257c-0.445,0.483-0.89,0.966-1.335,1.449
					c1.178,0,2.357,0,3.535,0c-2.058-2.291-4.116-4.582-6.174-6.873c-0.903-1.005-2.617-0.919-3.536,0
					C626.905,167.205,626.999,168.734,627.904,169.741L627.904,169.741z"/>
			</g>
		</g>
		<g>
			<g>
				<path style="fill:#26244A;" d="M609.755,112.67c14.136,0,28.272,0,42.408,0c3.692,0,7.384,0,11.076,0c0.804,0,0.806-1.25,0-1.25
					c-14.136,0-28.272,0-42.408,0c-3.692,0-7.384,0-11.076,0C608.951,111.42,608.95,112.67,609.755,112.67L609.755,112.67z"/>
			</g>
		</g>
		<g>
			<g>
				<path style="fill:#26244A;" d="M628.114,106.529c5.589,0,11.178,0,16.767,0c0.804,0,0.806-1.25,0-1.25
					c-5.589,0-11.178,0-16.767,0C627.31,105.279,627.308,106.529,628.114,106.529L628.114,106.529z"/>
			</g>
		</g>
	</g>
	<path style="fill:#DADEF1;" d="M249.476,115.011c-3.42,3.475-3.915,9.135-1.172,13.399c1.342,2.086,3.204,3.573,5.264,4.419
		c0.502,0.206,1.029,0.339,1.556,0.452l10.063,2.167c1.582,0.341,3.067-0.886,3.03-2.504l-0.167-7.342
		c-0.015-0.693-0.078-2.023-0.156-3.211c-0.147-2.235-0.89-4.445-2.307-6.219c-0.011-0.013-0.022-0.027-0.032-0.04
		C261.469,111.065,253.993,110.422,249.476,115.011z M260.836,125.53c-2.08,2.652-6.177,2.129-7.757-0.989
		c-0.796-1.571-0.629-3.492,0.419-4.828c2.08-2.652,6.178-2.13,7.757,0.989C262.051,122.273,261.884,124.194,260.836,125.53z"/>
	<path style="fill:#DADEF1;" d="M674.81,265.576c-6.268,0.709-11.376,5.997-12.09,12.519c-0.349,3.19,0.312,6.202,1.695,8.731
		c0.337,0.616,0.759,1.178,1.197,1.722l8.354,10.374c1.313,1.631,3.806,1.606,5.087-0.051l5.81-7.518
		c0.549-0.709,1.569-2.097,2.459-3.356c1.673-2.367,2.725-5.195,2.744-8.133c0-0.022,0-0.045,0-0.067
		C690.082,271.373,683.089,264.639,674.81,265.576z M677.667,285.403c-4.251,0.972-7.946-2.889-6.995-7.311
		c0.479-2.228,2.21-4.024,4.353-4.514c4.251-0.972,7.946,2.889,6.996,7.311C681.541,283.118,679.81,284.913,677.667,285.403z"/>
	<g>
		<g>
			<path style="fill:#B8C1EA;" d="M719.157,119.007c2.004-2.68,0.563-6.966-2.429-8.463c-2.992-1.497-6.814-0.513-9.266,1.764
				c2.193-2.325,1.044-6.557-1.719-8.162c-2.763-1.606-6.382-0.997-9.1,0.684c-2.718,1.682-4.73,4.269-6.681,6.801
				c0.106-1.835-1.653-3.418-3.486-3.54c-1.834-0.122-3.527,0.983-4.771,2.336c-3.013,3.276-4.745,7.265-5.44,8.967L719.157,119.007
				z"/>
		</g>
		<g>
			<path style="fill:#DADEF1;" d="M527.37,87.178c2.003-2.68,0.563-6.966-2.429-8.463c-2.992-1.497-6.814-0.513-9.266,1.764
				c2.193-2.325,1.044-6.557-1.719-8.162c-2.763-1.606-6.382-0.997-9.1,0.684c-2.718,1.682-4.73,4.269-6.681,6.801
				c0.106-1.835-1.652-3.418-3.486-3.54c-1.834-0.122-3.527,0.983-4.771,2.335c-3.013,3.276-4.745,7.265-5.44,8.967L527.37,87.178z"
				/>
		</g>
		<g>
			<path style="fill:#F5F5F5;" d="M156.88,62.071c2.003-2.68,0.563-6.966-2.429-8.463c-2.992-1.497-6.814-0.513-9.266,1.764
				c2.193-2.325,1.044-6.557-1.719-8.162c-2.763-1.606-6.382-0.997-9.1,0.685c-2.718,1.682-4.73,4.269-6.681,6.801
				c0.106-1.835-1.652-3.418-3.486-3.54c-1.834-0.122-3.527,0.983-4.771,2.336c-3.013,3.276-4.745,7.265-5.44,8.967L156.88,62.071z"
				/>
		</g>
		<g>
			<path style="fill:#F5F5F5;" d="M622.033,55.349c2.003-2.68,0.563-6.966-2.429-8.463c-2.992-1.497-6.814-0.514-9.266,1.764
				c2.193-2.325,1.044-6.557-1.719-8.163c-2.763-1.606-6.382-0.997-9.1,0.684c-2.718,1.682-4.73,4.269-6.681,6.801
				c0.106-1.835-1.653-3.418-3.486-3.54c-1.834-0.122-3.527,0.983-4.771,2.335c-3.013,3.277-4.745,7.265-5.44,8.967L622.033,55.349z
				"/>
		</g>
		<g>
			<path style="fill:#F5F5F5;" d="M441.716,57.038c2.004-2.68,0.563-6.966-2.429-8.463c-2.992-1.497-6.814-0.513-9.266,1.764
				c2.193-2.325,1.044-6.557-1.719-8.162c-2.763-1.606-6.382-0.997-9.1,0.684c-2.718,1.682-4.73,4.269-6.681,6.801
				c0.106-1.835-1.652-3.418-3.486-3.54c-1.834-0.122-3.527,0.983-4.771,2.336c-3.013,3.276-4.746,7.265-5.44,8.967L441.716,57.038z
				"/>
		</g>
		<g>
			<path style="fill:#F5F5F5;" d="M545.619,212.028c2.003-2.68,0.563-6.966-2.429-8.463c-2.992-1.497-6.814-0.513-9.266,1.764
				c2.193-2.325,1.044-6.557-1.719-8.162c-2.763-1.606-6.382-0.997-9.1,0.684c-2.718,1.682-4.73,4.269-6.681,6.801
				c0.106-1.835-1.652-3.418-3.486-3.54c-1.834-0.122-3.527,0.983-4.771,2.336c-3.013,3.276-4.745,7.265-5.44,8.967L545.619,212.028
				z"/>
		</g>
		<g>
			<path style="fill:#B8C1EA;" d="M267.405,80.353c2.004-2.68,0.563-6.966-2.429-8.463c-2.992-1.497-6.814-0.513-9.266,1.764
				c2.193-2.325,1.044-6.557-1.719-8.162c-2.763-1.606-6.382-0.997-9.1,0.684c-2.718,1.682-4.73,4.269-6.681,6.801
				c0.106-1.835-1.652-3.418-3.486-3.54c-1.834-0.122-3.527,0.983-4.771,2.336c-3.013,3.276-4.745,7.265-5.44,8.967L267.405,80.353z
				"/>
		</g>
		<g>
			<path style="fill:#B8C1EA;" d="M79.578,122.326c2.004-2.68,0.563-6.966-2.429-8.463c-2.992-1.497-6.814-0.513-9.266,1.764
				c2.193-2.325,1.044-6.557-1.719-8.162c-2.764-1.606-6.382-0.997-9.1,0.685c-2.718,1.682-4.73,4.269-6.681,6.801
				c0.106-1.835-1.652-3.418-3.486-3.54c-1.834-0.122-3.527,0.983-4.771,2.336c-3.013,3.276-4.745,7.265-5.44,8.967L79.578,122.326z
				"/>
		</g>
	</g>
	<path style="fill:#4092E2;" d="M330.877,43.643c-8.922,3.473-14.364,13.215-12.881,23.061c0.725,4.817,2.865,8.978,5.875,12.153
		c0.734,0.774,1.571,1.435,2.424,2.063l16.284,11.98c2.56,1.883,6.208,0.88,7.444-2.049l5.608-13.286
		c0.531-1.253,1.489-3.687,2.305-5.878c1.536-4.122,1.983-8.68,0.87-12.998c-0.008-0.033-0.017-0.066-0.026-0.099
		C355.535,46.222,342.661,39.055,330.877,43.643z M342.764,71.626c-5.86,3.076-12.78-1.156-13.101-8.013
		c-0.162-3.455,1.682-6.762,4.635-8.312c5.861-3.077,12.781,1.156,13.102,8.013C347.561,66.77,345.717,70.076,342.764,71.626z"/>
	<g>
		<g>
			<g>
				<path style="fill:#F2A441;" d="M526.449,390.929h-44.682c-1.207,0-2.186-0.979-2.186-2.186v-31.343
					c0-1.976,1.602-3.577,3.577-3.577h43.291c1.208,0,2.186,0.979,2.186,2.186v32.734
					C528.635,389.95,527.656,390.929,526.449,390.929z"/>
			</g>
			<g>
				<g>
					<path style="fill:#26244A;" d="M512.184,354.053c0,12.307,0,24.615,0,36.922c0,0.804,1.25,0.806,1.25,0
						c0-12.307,0-24.615,0-36.922C513.434,353.249,512.184,353.247,512.184,354.053L512.184,354.053z"/>
				</g>
			</g>
			<rect x="492.562" y="353.822" style="fill:#DADEF1;" width="6.83" height="6.83"/>
			<rect x="518.369" y="384.099" style="fill:#DADEF1;" width="6.83" height="6.83"/>
			<path style="fill:none;stroke:#26244A;stroke-miterlimit:10;" d="M479.622,390.35l-0.041-35.101c0-0.847,0.686-1.533,1.533-1.533
				l47.522,0.106"/>
		</g>
		<g>
			<g>
				<path style="fill:#F2A441;" d="M548.602,458.611h-84.429c-1.208,0-2.186-0.979-2.186-2.186v-61.409
					c0-1.976,1.602-3.577,3.577-3.577h83.038c1.208,0,2.186,0.979,2.186,2.186v62.8C550.789,457.632,549.81,458.611,548.602,458.611
					z"/>
			</g>
			<g>
				<g>
					<path style="fill:#26244A;" d="M521.514,391.856c0,17.383,0,34.766,0,52.15c0,4.896,0,9.792,0,14.689
						c0,0.804,1.25,0.806,1.25,0c0-17.383,0-34.766,0-52.15c0-4.896,0-9.793,0-14.689
						C522.764,391.052,521.514,391.05,521.514,391.856L521.514,391.856z"/>
				</g>
			</g>
			<rect x="485.487" y="391.438" style="fill:#DADEF1;" width="12.363" height="12.363"/>
			<rect x="532.204" y="446.247" style="fill:#DADEF1;" width="12.363" height="12.363"/>
			<path style="fill:none;stroke:#26244A;stroke-miterlimit:10;" d="M462.062,457.563l-0.075-63.542
				c0-1.533,1.242-2.775,2.775-2.775l86.027,0.192"/>
		</g>
	</g>
	<g>
		<g>
			<path style="fill:#26244A;" d="M36.657,459.591c88.244,0,176.488,0,264.732,0c87.794,0,175.587,0,263.381,0
				c49.525,0,99.049,0,148.574,0c0.804,0,0.806-1.25,0-1.25c-88.244,0-176.488,0-264.731,0c-87.794,0-175.587,0-263.381,0
				c-49.525,0-99.049,0-148.574,0C35.853,458.341,35.851,459.591,36.657,459.591L36.657,459.591z"/>
		</g>
	</g>
</g>
</svg>
