<?xml version="1.0" encoding="utf-8"?>
<!-- Generator: Adobe Illustrator 27.5.0, SVG Export Plug-In . SVG Version: 6.00 Build 0)  -->
<svg version="1.1" xmlns="http://www.w3.org/2000/svg" xmlns:xlink="http://www.w3.org/1999/xlink" x="0px" y="0px"
	 viewBox="0 0 500 500" style="enable-background:new 0 0 500 500;" xml:space="preserve">
<g id="Background_Complete">
	<rect x="416.779" y="398.494" style="fill:#EBEBEB;" width="33.122" height="0.25"/>
	<rect x="322.527" y="401.208" style="fill:#EBEBEB;" width="8.693" height="0.25"/>
	<rect x="396.586" y="389.208" style="fill:#EBEBEB;" width="19.192" height="0.25"/>
	<rect x="52.459" y="390.888" style="fill:#EBEBEB;" width="43.193" height="0.25"/>
	<rect x="104.556" y="390.888" style="fill:#EBEBEB;" width="6.333" height="0.25"/>
	<rect x="131.471" y="395.111" style="fill:#EBEBEB;" width="93.676" height="0.25"/>
	<g>
		<path style="fill:#EBEBEB;" d="M238.401,337.8H45.302c-3.147,0-5.708-2.561-5.708-5.708V60.66c0-3.147,2.561-5.708,5.708-5.708
			h193.099c3.146,0,5.707,2.561,5.707,5.708v271.432C244.108,335.239,241.547,337.8,238.401,337.8z M45.302,55.203
			c-3.01,0-5.458,2.448-5.458,5.458v271.432c0,3.01,2.448,5.458,5.458,5.458h193.099c3.009,0,5.457-2.448,5.457-5.458V60.66
			c0-3.009-2.448-5.458-5.457-5.458H45.302z"/>
		<path style="fill:#EBEBEB;" d="M454.698,337.684H261.599c-3.146,0-5.707-2.56-5.707-5.708V60.544c0-3.147,2.561-5.708,5.707-5.708
			h193.099c3.148,0,5.708,2.561,5.708,5.708v271.432C460.406,335.124,457.845,337.684,454.698,337.684z M261.599,55.087
			c-3.009,0-5.457,2.448-5.457,5.458v271.432c0,3.01,2.448,5.458,5.457,5.458h193.099c3.01,0,5.458-2.448,5.458-5.458V60.544
			c0-3.009-2.448-5.458-5.458-5.458H261.599z"/>
	</g>
	<rect y="382.398" style="fill:#EBEBEB;" width="500" height="0.25"/>
	<g>
		<g>
			<g>
				<g>
					<polygon style="fill:#F5F5F5;" points="409.182,132.346 410.673,132.346 453.838,132.346 453.838,138.077 410.673,138.077 
						409.182,138.077 265.244,138.077 265.244,132.346 					"/>
					<g>
						<polygon style="fill:#E0E0E0;" points="443.166,152.009 443.166,138.077 450.132,138.077 						"/>
						<polygon style="fill:#F5F5F5;" points="446.649,152.009 453.616,138.077 450.132,138.077 443.166,152.009 						"/>
					</g>
					<g>
						<polygon style="fill:#E0E0E0;" points="275.694,152.009 275.694,138.077 268.727,138.077 						"/>
						<polygon style="fill:#F5F5F5;" points="272.21,152.009 265.244,138.077 268.727,138.077 275.694,152.009 						"/>
					</g>
				</g>
				<g>
					<path style="fill:#E6E6E6;" d="M289.602,118.391c0,8.37,6.785,15.155,15.155,15.155c8.37,0,15.155-6.785,15.155-15.155v-0.528
						c0-8.37-6.785-15.155-15.155-15.155c-8.37,0-15.155,6.785-15.155,15.155V118.391z"/>
					<path style="fill:#F0F0F0;" d="M289.602,116.212c0,8.37,6.785,15.155,15.155,15.155c8.37,0,15.155-6.785,15.155-15.155v-0.528
						c0-8.37-6.785-15.155-15.155-15.155c-8.37,0-15.155,6.785-15.155,15.155V116.212z"/>
					<path style="fill:#FAFAFA;" d="M292.917,115.684c0,6.539,5.301,11.84,11.84,11.84c6.539,0,11.84-5.301,11.84-11.84
						c0-6.539-5.301-11.84-11.84-11.84C298.218,103.844,292.917,109.145,292.917,115.684z"/>
					<path style="fill:#E6E6E6;" d="M304.757,105.713c-6.224,0-11.315,4.805-11.793,10.906c-0.024-0.309-0.047-0.619-0.047-0.935
						c0-6.539,5.301-11.84,11.84-11.84c6.539,0,11.84,5.301,11.84,11.84c0,0.316-0.023,0.625-0.047,0.935
						C316.072,110.518,310.981,105.713,304.757,105.713z"/>
					<path style="fill:#E0E0E0;" d="M297.279,115.677c0.354,0,4.177,0,6.225,0c0-2.049,0-5.879,0-6.225
						c0-0.692,0.561-1.253,1.253-1.253c0.692,0,1.253,0.561,1.253,1.253c0,0.469,0,7.009,0,7.478c0,0.692-0.561,1.253-1.253,1.253
						l0,0l0,0c-0.459,0-7.02,0-7.478,0c-0.692,0-1.253-0.561-1.253-1.253S296.587,115.677,297.279,115.677z"/>
					<path style="fill:#F5F5F5;" d="M297.279,116.937c-0.692,0-1.253-0.561-1.253-1.253c0-0.692,0.561-1.253,1.253-1.253
						c0.469,0,7.01,0,7.478,0c0.692,0,1.253,0.561,1.253,1.253c0,0.692-0.561,1.253-1.253,1.253
						C304.298,116.937,297.738,116.937,297.279,116.937z"/>
					<path style="fill:#EBEBEB;" d="M303.504,108.206c0-0.692,0.561-1.253,1.253-1.253c0.692,0,1.253,0.561,1.253,1.253
						c0,0.469,0,7.009,0,7.478c0,0.692-0.561,1.253-1.253,1.253c-0.692,0-1.253-0.561-1.253-1.253
						C303.504,115.225,303.504,108.664,303.504,108.206z"/>
				</g>
				<g>
					<g>
						
							<rect x="426.411" y="94.601" transform="matrix(-1 -1.224647e-16 1.224647e-16 -1 861.9563 227.1432)" style="fill:#E0E0E0;" width="9.134" height="37.942"/>
						<circle style="fill:#FAFAFA;" cx="430.978" cy="124.441" r="2.81"/>
						
							<rect x="428.168" y="98.27" transform="matrix(-1 -1.224647e-16 1.224647e-16 -1 861.9562 214.8069)" style="opacity:0.6;fill:#F0F0F0;" width="5.621" height="18.267"/>
						
							<rect x="428.168" y="98.27" transform="matrix(-1 -1.224647e-16 1.224647e-16 -1 861.9562 199.1154)" style="opacity:0.6;fill:#FAFAFA;" width="5.621" height="2.576"/>
					</g>
					<g>
						
							<rect x="419.557" y="101.897" transform="matrix(-1 -1.224647e-16 1.224647e-16 -1 846.4909 234.4398)" style="fill:#E6E6E6;" width="7.377" height="30.645"/>
						<path style="fill:#FAFAFA;" d="M420.976,125.999c0,1.254,1.016,2.27,2.27,2.27c1.254,0,2.27-1.016,2.27-2.27
							c0-1.254-1.016-2.27-2.27-2.27C421.992,123.729,420.976,124.746,420.976,125.999z"/>
						
							<rect x="420.976" y="104.861" transform="matrix(-1 -1.224647e-16 1.224647e-16 -1 846.491 224.4759)" style="opacity:0.6;fill:#F0F0F0;" width="4.54" height="14.755"/>
						
							<rect x="420.976" y="104.861" transform="matrix(-1 -1.224647e-16 1.224647e-16 -1 846.491 211.802)" style="opacity:0.6;fill:#FAFAFA;" width="4.54" height="2.081"/>
					</g>
					<g>
						
							<rect x="441.445" y="94.601" transform="matrix(-1 -1.224647e-16 1.224647e-16 -1 892.0233 227.1432)" style="fill:#EBEBEB;" width="9.134" height="37.942"/>
						<circle style="fill:#E0E0E0;" cx="446.012" cy="124.441" r="2.81"/>
						
							<rect x="443.201" y="98.27" transform="matrix(-1 -1.224647e-16 1.224647e-16 -1 892.0232 214.8069)" style="opacity:0.6;fill:#FAFAFA;" width="5.621" height="18.267"/>
						
							<rect x="443.201" y="98.27" transform="matrix(-1 -1.224647e-16 1.224647e-16 -1 892.0232 199.1154)" style="opacity:0.6;fill:#FAFAFA;" width="5.621" height="2.576"/>
					</g>
					<g>
						
							<rect x="411.076" y="94.601" transform="matrix(-1 -1.224647e-16 1.224647e-16 -1 831.2848 227.1432)" style="fill:#E0E0E0;" width="9.134" height="37.942"/>
						<circle style="fill:#FAFAFA;" cx="415.642" cy="124.441" r="2.81"/>
						
							<rect x="412.832" y="98.27" transform="matrix(-1 -1.224647e-16 1.224647e-16 -1 831.2848 214.8069)" style="opacity:0.6;fill:#F0F0F0;" width="5.621" height="18.267"/>
						
							<rect x="412.832" y="98.27" transform="matrix(-1 -1.224647e-16 1.224647e-16 -1 831.2848 199.1154)" style="opacity:0.6;fill:#FAFAFA;" width="5.621" height="2.576"/>
					</g>
					<g>
						
							<rect x="400.001" y="94.601" transform="matrix(-0.9945 -0.1045 0.1045 -0.9945 795.046 268.8131)" style="fill:#EBEBEB;" width="9.134" height="37.942"/>
						<path style="fill:#E0E0E0;" d="M400.636,124.088c-0.162,1.544,0.957,2.927,2.501,3.089c1.544,0.162,2.926-0.958,3.089-2.501
							c0.162-1.544-0.958-2.926-2.501-3.089C402.181,121.425,400.799,122.544,400.636,124.088z"/>
						
							<rect x="402.402" y="98.304" transform="matrix(-0.9945 -0.1045 0.1045 -0.9945 796.9728 256.6468)" style="opacity:0.6;fill:#F5F5F5;" width="5.621" height="18.267"/>
						
							<rect x="403.222" y="98.346" transform="matrix(-0.9945 -0.1045 0.1045 -0.9945 799.4243 241.1698)" style="opacity:0.6;fill:#FAFAFA;" width="5.621" height="2.576"/>
					</g>
					<g>
						
							<rect x="434.892" y="101.897" transform="matrix(-1 -1.224647e-16 1.224647e-16 -1 877.1623 234.4398)" style="fill:#E6E6E6;" width="7.377" height="30.645"/>
						<path style="fill:#FAFAFA;" d="M436.311,125.999c0,1.254,1.016,2.27,2.27,2.27c1.254,0,2.27-1.016,2.27-2.27
							c0-1.254-1.016-2.27-2.27-2.27C437.328,123.729,436.311,124.746,436.311,125.999z"/>
						
							<rect x="436.311" y="104.861" transform="matrix(-1 -1.224647e-16 1.224647e-16 -1 877.1624 224.4759)" style="opacity:0.6;fill:#F0F0F0;" width="4.54" height="14.755"/>
						
							<rect x="436.311" y="104.861" transform="matrix(-1 -1.224647e-16 1.224647e-16 -1 877.1624 211.802)" style="opacity:0.6;fill:#FAFAFA;" width="4.54" height="2.081"/>
					</g>
				</g>
				<g>
					<g>
						<g>
							<g>
								
									<rect x="338.983" y="124.719" transform="matrix(-1 -1.224647e-16 1.224647e-16 -1 715.3219 256.9265)" style="fill:#EBEBEB;" width="37.356" height="7.488"/>
								
									<rect x="339.104" y="124.752" transform="matrix(-1 -1.224647e-16 1.224647e-16 -1 715.5642 256.9917)" style="opacity:0.1;fill:#FFFFFF;enable-background:new    ;" width="37.357" height="7.488"/>
								
									<rect x="338.983" y="124.752" transform="matrix(-1 -1.224647e-16 1.224647e-16 -1 706.6391 256.9917)" style="opacity:0.6;fill:#FFFFFF;enable-background:new    ;" width="28.674" height="7.488"/>
								<polygon style="fill:#E0E0E0;enable-background:new    ;" points="339.164,131.255 376.341,132.185 376.299,131.426 
									339.144,131.035 								"/>
								<polygon style="fill:#E0E0E0;enable-background:new    ;" points="376.341,127.791 339.222,126.109 339.222,126.361 
									376.341,128.361 								"/>
								<polygon style="fill:#E0E0E0;enable-background:new    ;" points="376.341,125.53 339.222,126.215 339.222,126.462 
									376.341,126.1 								"/>
								<polygon style="fill:#E0E0E0;enable-background:new    ;" points="376.445,129.262 339.32,130.72 339.32,130.501 
									376.445,128.764 								"/>
							</g>
							<polygon style="fill:#E0E0E0;enable-background:new    ;" points="339.074,124.817 376.192,124.842 376.192,125.088 
								339.074,125.088 							"/>
						</g>
						<g>
							
								<rect x="341.662" y="102.419" transform="matrix(-1 -1.224647e-16 1.224647e-16 -1 720.6798 212.3259)" style="fill:#E0E0E0;" width="37.357" height="7.488"/>
							
								<rect x="341.883" y="102.719" transform="matrix(-1 -1.224647e-16 1.224647e-16 -1 721.1229 212.9267)" style="opacity:0.5;fill:#FFFFFF;enable-background:new    ;" width="37.356" height="7.488"/>
							
								<rect x="341.662" y="102.452" transform="matrix(-1 -1.224647e-16 1.224647e-16 -1 711.9969 212.3909)" style="opacity:0.6;fill:#FFFFFF;enable-background:new    ;" width="28.674" height="7.488"/>
							<polygon style="fill:#E0E0E0;enable-background:new    ;" points="341.843,108.954 379.019,109.884 378.978,109.125 
								341.823,108.735 							"/>
							<polygon style="fill:#E0E0E0;enable-background:new    ;" points="379.019,105.491 341.901,103.809 341.901,104.061 
								379.019,106.061 							"/>
							<polygon style="fill:#E0E0E0;enable-background:new    ;" points="379.019,103.23 341.901,103.915 341.901,104.162 
								379.019,103.8 							"/>
							<polygon style="fill:#E0E0E0;enable-background:new    ;" points="379.124,106.962 341.999,108.42 341.999,108.201 
								379.124,106.463 							"/>
						</g>
						<g>
							
								<rect x="341.197" y="117.129" transform="matrix(-1 -1.224647e-16 1.224647e-16 -1 719.751 241.7449)" style="fill:#E0E0E0;" width="37.357" height="7.488"/>
							
								<rect x="341.318" y="117.161" transform="matrix(-1 -1.224647e-16 1.224647e-16 -1 719.9932 241.81)" style="opacity:0.5;fill:#FFFFFF;enable-background:new    ;" width="37.357" height="7.488"/>
							<rect x="341.279" y="117.161" style="opacity:0.6;fill:#FFFFFF;enable-background:new    ;" width="28.674" height="7.488"/>
							<polygon style="fill:#E0E0E0;enable-background:new    ;" points="378.393,123.444 341.239,123.835 341.197,124.594 
								378.373,123.664 							"/>
							<polygon style="fill:#E0E0E0;enable-background:new    ;" points="341.437,117.226 378.555,117.251 378.555,117.497 
								341.437,117.497 							"/>
							<polygon style="fill:#E0E0E0;enable-background:new    ;" points="341.197,120.771 378.315,118.77 378.315,118.518 
								341.197,120.201 							"/>
							<polygon style="fill:#E0E0E0;enable-background:new    ;" points="378.555,117.939 341.437,118.625 341.437,118.871 
								378.555,118.509 							"/>
							<polygon style="fill:#E0E0E0;enable-background:new    ;" points="378.659,121.672 341.534,123.129 341.534,122.91 
								378.659,121.173 							"/>
						</g>
						<g>
							<polygon style="fill:#E0E0E0;" points="377.261,110.07 339.92,110.221 339.866,117.557 377.261,117.557 							"/>
							
								<rect x="339.905" y="110.07" transform="matrix(-1 -1.224647e-16 1.224647e-16 -1 717.1662 227.6268)" style="opacity:0.5;fill:#FFFFFF;enable-background:new    ;" width="37.357" height="7.488"/>
							<rect x="339.866" y="110.07" style="opacity:0.6;fill:#FFFFFF;enable-background:new    ;" width="28.674" height="7.488"/>
							<polygon style="fill:#E0E0E0;enable-background:new    ;" points="369.662,110.221 339.92,110.221 339.92,110.983 
								369.023,110.983 							"/>
							<polygon style="fill:#E0E0E0;enable-background:new    ;" points="377.045,113.288 339.92,113.568 339.92,113.787 
								377.045,113.787 							"/>
							<polygon style="fill:#E0E0E0;enable-background:new    ;" points="339.92,116.753 377.045,115.295 377.045,115.514 
								339.92,117.251 							"/>
							<polygon style="fill:#E0E0E0;enable-background:new    ;" points="339.92,113.938 377.045,114.535 377.045,114.749 
								339.92,114.436 							"/>
						</g>
						<g>
							<rect x="349.68" y="93.782" style="fill:#E0E0E0;" width="37.118" height="3.77"/>
							<rect x="349.68" y="93.782" style="opacity:0.5;fill:#FFFFFF;enable-background:new    ;" width="37.118" height="3.77"/>
							<rect x="349.68" y="93.782" style="opacity:0.6;fill:#FFFFFF;enable-background:new    ;" width="29.579" height="3.77"/>
							<polygon style="fill:#E0E0E0;enable-background:new    ;" points="386.818,96.456 349.7,96.604 349.7,96.714 386.818,96.714 
															"/>
							<polygon style="fill:#E0E0E0;enable-background:new    ;" points="349.7,95.047 386.818,94.285 386.818,94.4 349.7,95.304 
															"/>
							<polygon style="fill:#E0E0E0;enable-background:new    ;" points="349.579,94.84 386.697,95.147 386.697,95.262 
								349.579,95.098 							"/>
						</g>
						<g>
							<g>
								<rect x="344.484" y="92.122" style="fill:#E0E0E0;" width="37.118" height="1.817"/>
								<rect x="344.484" y="92.137" style="opacity:0.5;fill:#FFFFFF;enable-background:new    ;" width="37.118" height="1.802"/>
								<rect x="344.484" y="92.024" style="opacity:0.6;fill:#FFFFFF;enable-background:new    ;" width="29.579" height="1.915"/>
							</g>
							<polygon style="fill:#E0E0E0;enable-background:new    ;" points="344.505,93.506 381.623,92.744 381.623,92.859 
								344.505,93.763 							"/>
							<polygon style="fill:#E0E0E0;enable-background:new    ;" points="344.505,92.594 381.623,92.901 381.623,93.016 
								344.505,92.851 							"/>
						</g>
						<g>
							<g>
								<rect x="347.943" y="90.266" style="fill:#E0E0E0;" width="37.118" height="1.817"/>
								<rect x="347.943" y="90.281" style="opacity:0.5;fill:#FFFFFF;enable-background:new    ;" width="37.118" height="1.802"/>
								<rect x="347.943" y="90.168" style="opacity:0.6;fill:#FFFFFF;enable-background:new    ;" width="29.579" height="1.915"/>
							</g>
							<polygon style="fill:#E0E0E0;enable-background:new    ;" points="347.965,91.087 385.092,91.451 385.087,91.566 
								347.953,91.344 							"/>
							<polygon style="fill:#E0E0E0;enable-background:new    ;" points="347.963,90.738 385.082,91.045 385.082,91.16 
								347.963,90.996 							"/>
						</g>
						<g>
							<rect x="347.168" y="97.552" style="fill:#E0E0E0;" width="37.118" height="4.855"/>
							<rect x="347.168" y="97.552" style="opacity:0.5;fill:#FFFFFF;enable-background:new    ;" width="37.118" height="4.855"/>
							<rect x="347.168" y="97.552" style="opacity:0.6;fill:#FFFFFF;enable-background:new    ;" width="28.641" height="4.855"/>
							<polygon style="fill:#E0E0E0;enable-background:new    ;" points="384.051,99.061 346.933,98.891 346.933,98.76 
								384.051,98.76 							"/>
							<polygon style="fill:#E0E0E0;enable-background:new    ;" points="347.189,99.766 384.307,100.643 384.307,100.511 
								347.189,99.47 							"/>
							<polygon style="fill:#E0E0E0;enable-background:new    ;" points="384.307,97.558 349.296,97.558 350.071,98.155 
								384.307,98.155 							"/>
							<polygon style="fill:#E0E0E0;enable-background:new    ;" points="347.316,101.657 384.435,101.296 384.435,101.17 
								347.316,101.356 							"/>
						</g>
					</g>
				</g>
			</g>
			<g>
				<rect x="135.328" y="61.717" style="fill:#E6E6E6;" width="1.35" height="40.018"/>
				<g>
					<polygon style="fill:#F0F0F0;" points="93.243,123.972 136.003,98.129 178.763,123.972 					"/>
					<polygon style="fill:#FAFAFA;" points="138.955,123.972 136.003,98.129 155.225,123.972 					"/>
				</g>
			</g>
		</g>
		<g>
			<g>
				<g>
					<g>
						<g>
							<path style="fill:#E0E0E0;" d="M75.613,356.314l0.723,0.089c0.045-0.367,4.434-37.094-4.619-67.106
								c-8.998-29.83-2.802-48.837-2.738-49.025l-0.691-0.233c-0.064,0.191-6.333,19.419,2.731,49.469
								C80.027,319.37,75.658,355.948,75.613,356.314z"/>
						</g>
						<g>
							<g>
								<path style="fill:#E0E0E0;" d="M67.688,244.362c1.562-1.869,3.728-3.204,6.099-3.76l-0.166-0.71
									c-2.524,0.592-4.83,2.013-6.493,4.003L67.688,244.362z"/>
							</g>
						</g>
						<g>
							
								<rect x="65.089" y="247.121" transform="matrix(0.4918 -0.8707 0.8707 0.4918 -182.952 183.1942)" style="fill:#E0E0E0;" width="0.729" height="2.395"/>
						</g>
						<g>
							<path style="fill:#E0E0E0;" d="M68.472,264.333c1.792-4.111,5.209-7.425,9.372-9.093l-0.271-0.677
								c-4.34,1.739-7.901,5.193-9.77,9.478L68.472,264.333z"/>
						</g>
						<g>
							<path style="fill:#E0E0E0;" d="M70.426,287.278l0.729,0.009c0.036-2.964,1.446-5.83,3.771-7.668l-0.452-0.572
								C71.978,281.02,70.465,284.097,70.426,287.278z"/>
						</g>
						<g>
							<path style="fill:#E0E0E0;" d="M72.052,293.145l0.679-0.267c-0.731-1.855-2.28-3.385-4.145-4.091l-0.258,0.682
								C70.003,290.104,71.395,291.478,72.052,293.145z"/>
						</g>
						<g>
							<path style="fill:#E0E0E0;" d="M76.774,330.369l0.561-0.465c-0.886-1.069-1.557-5.141-1.917-7.328
								c-0.086-0.523-0.159-0.969-0.221-1.291l-0.716,0.136c0.06,0.318,0.133,0.757,0.218,1.273
								C75.237,325.96,75.84,329.242,76.774,330.369z"/>
						</g>
						<g>
							<path style="fill:#E0E0E0;" d="M77.196,342.058c0.941-2.879,3.932-4.943,6.957-4.802l0.034-0.728
								c-3.341-0.156-6.645,2.124-7.684,5.303L77.196,342.058z"/>
						</g>
						<g>
							
								<rect x="73.554" y="348.932" transform="matrix(0.7457 -0.6663 0.6663 0.7457 -216.2491 138.9529)" style="fill:#E0E0E0;" width="0.729" height="7.708"/>
						</g>
					</g>
					<g>
						<path style="fill:#F0F0F0;" d="M67.996,312.201c-1.164,3.767,6.954,10.939,6.954,10.939s10.748-1.344,11.912-5.111
							c1.164-3.767-1.559-9.931-6.768-11.541C74.884,304.879,69.159,308.434,67.996,312.201z"/>
						<path style="fill:#EBEBEB;" d="M58.987,266.483c1.03,4.001,8.718,6.843,8.718,6.843s5.36-6.201,4.33-10.202
							c-1.03-4.001-5.28-8.41-8.883-7.482C59.549,256.569,57.957,262.482,58.987,266.483z"/>
						<path style="fill:#F5F5F5;" d="M89.837,326.271c-4.827,1.88-7.786,10.418-7.786,10.418s7.953,4.289,12.781,2.409
							c4.828-1.88,9.937-7.176,8.558-10.718C102.01,324.838,94.664,324.391,89.837,326.271z"/>
						<path style="fill:#E6E6E6;" d="M79.252,279.297c-1.02,0.757-2.072,1.53-3.299,1.863c-1.226,0.333-2.685,0.129-3.518-0.83
							c-1.033-1.189-0.756-3.032-0.105-4.466c1.289-2.842,6.047-7.665,9.701-6.282C87.306,271.58,81.605,277.552,79.252,279.297z"/>
						<path style="fill:#EBEBEB;" d="M68.456,286.54c0.692,0.858,1.427,1.939,1.048,2.974c-0.336,0.918-1.464,1.339-2.43,1.193
							c-0.967-0.146-1.807-0.719-2.61-1.277c-1.862-1.293-5.68-4.006-3.243-6.544C63.754,280.249,66.998,284.733,68.456,286.54z"/>
						<path style="fill:#E0E0E0;" d="M84.035,250.429c0.797,0.088,1.604,0.621,1.74,1.411c0.159,0.924-0.607,1.732-1.35,2.304
							c-1.849,1.425-7.406,5.271-8.647,1.561C74.607,252.2,81.579,250.158,84.035,250.429z"/>
						<g>
							<path style="fill:#E6E6E6;" d="M73.791,238.225c1.147,0.109,2.29-0.307,3.44-0.234c1.149,0.073,2.425,0.998,2.17,2.121
								c-0.236,1.038-1.526,1.385-2.589,1.452c-1.813,0.114-3.64-0.012-5.42-0.374c-0.413-0.084-0.863-0.206-1.1-0.555
								c-0.465-0.685,0.275-1.602,1.066-1.844c0.791-0.242,1.684-0.162,2.402-0.572L73.791,238.225z"/>
						</g>
						<g>
							<path style="fill:#F0F0F0;" d="M62.586,246.115c-1.151,0.033-2.265-0.457-3.417-0.461c-1.152-0.003-2.485,0.836-2.305,1.973
								c0.167,1.051,1.432,1.483,2.487,1.62c1.801,0.233,3.633,0.228,5.433-0.016c0.418-0.057,0.875-0.149,1.134-0.481
								c0.509-0.652-0.168-1.616-0.942-1.911c-0.773-0.294-1.669-0.273-2.359-0.729L62.586,246.115z"/>
						</g>
						<g>
							<path style="fill:#F0F0F0;" d="M63.72,330.943c-0.284-0.24-0.606-0.487-0.978-0.484c-0.494,0.004-0.886,0.469-0.978,0.954
								c-0.092,0.485,0.044,0.981,0.186,1.454c0.779,2.611,9.542,21.521,11.558,18.125c1.192-2.008-1.737-8.656-2.601-10.538
								C69.235,336.815,66.782,333.529,63.72,330.943z"/>
						</g>
					</g>
				</g>
				<g>
					<path style="fill:#E6E6E6;" d="M68.961,238.944c-0.695-1.561-1.448-3.194-2.83-4.199c-1.382-1.005-3.596-1.08-4.602,0.301
						c-1.125,1.544,0,3.89,1.724,4.713c1.724,0.823,3.744,0.576,5.636,0.31c0.015-0.281,0.031-0.562,0.046-0.843L68.961,238.944z"/>
				</g>
			</g>
			<g>
				<path style="fill:#E6E6E6;" d="M62.926,381.34L62.926,381.34c9.222,1.861,18.952,1.861,28.174,0l0,0l7.352-32.338H55.574
					L62.926,381.34z"/>
			</g>
		</g>
	</g>
</g>
<g id="Background_Simple" style="display:none;">
	<g style="display:inline;">
		<g>
			<path style="fill:#407BFF;" d="M374.398,339.141c-25.329,20.527-62.277,21.648-92.932,10.55
				c-15.866-5.744-31.585-14.566-48.394-13.091c-11.816,1.037-22.521,7.096-33.839,10.645c-20.216,6.339-42.906,4.363-61.721-5.377
				c-18.211-9.427-32.314-25.532-42.354-43.412c-11.64-20.729-18.32-45.424-12.495-68.472c4.305-17.032,15.106-32.118,17.742-49.487
				c1.694-11.163-0.098-22.717,2.348-33.741c3.52-15.872,15.717-28.898,30.206-36.271s31.075-9.666,47.332-9.763
				c62.763-0.373,109.233,6.927,156.374,48.365c11.13,9.783,53.423,63.254,60.447,127.468
				C401.467,316.392,374.398,339.141,374.398,339.141z"/>
		</g>
		<g style="opacity:0.9;">
			<path style="fill:#FFFFFF;" d="M374.398,339.141c-25.329,20.527-62.277,21.648-92.932,10.55
				c-15.866-5.744-31.585-14.566-48.394-13.091c-11.816,1.037-22.521,7.096-33.839,10.645c-20.216,6.339-42.906,4.363-61.721-5.377
				c-18.211-9.427-32.314-25.532-42.354-43.412c-11.64-20.729-18.32-45.424-12.495-68.472c4.305-17.032,15.106-32.118,17.742-49.487
				c1.694-11.163-0.098-22.717,2.348-33.741c3.52-15.872,15.717-28.898,30.206-36.271s31.075-9.666,47.332-9.763
				c62.763-0.373,109.233,6.927,156.374,48.365c11.13,9.783,53.423,63.254,60.447,127.468
				C401.467,316.392,374.398,339.141,374.398,339.141z"/>
		</g>
	</g>
</g>
<g id="Shadow">
	<ellipse id="_x3C_Path_x3E__359_" style="fill:#F5F5F5;" cx="250" cy="415.693" rx="193.889" ry="11.323"/>
</g>
<g id="Device">
	<g>
		<g>
			<g>
				<path style="fill:#407BFF;" d="M395.43,336.844h-66.695c-7.503,0-13.16-6.082-12.635-13.586l11.147-159.411
					c0.525-7.503,7.032-13.585,14.535-13.585h66.695c7.503,0,13.16,6.082,12.635,13.585l-11.147,159.411
					C409.441,330.762,402.933,336.844,395.43,336.844z"/>
				<path style="fill:#407BFF;" d="M391.967,336.844h-66.695c-7.503,0-13.16-6.082-12.635-13.586l11.147-159.411
					c0.525-7.503,7.032-13.585,14.535-13.585h66.695c7.503,0,13.16,6.082,12.635,13.585l-11.147,159.411
					C405.977,330.762,399.47,336.844,391.967,336.844z"/>
				<path style="fill:#407BFF;" d="M404.796,153.38H387.46c-1.136,0-2.153,0.844-2.376,1.97l-0.107,0.543
					c-0.543,2.751-3.028,4.812-5.801,4.812h-16.481c-2.773,0-4.97-2.061-5.128-4.812l-0.031-0.543c-0.065-1.126-0.965-1.97-2.1-1.97
					H338.1c-5.782,0-10.796,4.687-11.201,10.469l-11.147,159.411c-0.404,5.782,3.955,10.469,9.737,10.469h66.695
					c5.782,0,10.796-4.687,11.201-10.469l11.147-159.411C414.936,158.066,410.577,153.38,404.796,153.38z"/>
				<path style="opacity:0.8;fill:#FFFFFF;" d="M414.531,163.847l-0.229,3.239l-10.914,156.173
					c-0.406,5.784-5.425,10.47-11.203,10.47h-66.698c-5.784,0-10.136-4.685-9.73-10.47l10.914-156.173l0.229-3.239
					c0.406-5.778,5.418-10.47,11.196-10.47h17.34c1.139,0,2.035,0.844,2.1,1.976l0.033,0.537c0.157,2.748,2.356,4.816,5.124,4.816
					h16.476c2.781,0,5.268-2.068,5.804-4.816l0.105-0.537c0.229-1.132,1.25-1.976,2.382-1.976h17.334
					C410.578,153.377,414.936,158.069,414.531,163.847z"/>
				<path style="opacity:0.2;" d="M382.695,303.317h-43.54c-4.892,0-8.581-3.966-8.239-8.858l0,0
					c0.342-4.892,4.585-8.858,9.478-8.858h43.54c4.892,0,8.581,3.966,8.239,8.858l0,0
					C391.83,299.351,387.587,303.317,382.695,303.317z"/>
				<path style="fill:#407BFF;" d="M346.882,294.379c-0.288,4.118-3.86,7.457-7.978,7.457c-4.118,0-7.223-3.338-6.935-7.457
					c0.288-4.118,3.86-7.457,7.978-7.457S347.17,290.261,346.882,294.379z"/>
				<g>
					<g style="opacity:0.7;">
						<path d="M367.291,155.146c-0.051,0.732-0.686,1.325-1.417,1.325s-1.283-0.593-1.232-1.325
							c0.051-0.732,0.686-1.325,1.417-1.325C366.79,153.821,367.342,154.414,367.291,155.146z"/>
						<path d="M376.776,153.821c-0.523,0-4.019,0-4.542,0c-0.732,0-1.366,0.593-1.417,1.325c-0.051,0.732,0.5,1.325,1.232,1.325
							c0.454,0,4.088,0,4.542,0c0.732,0,1.366-0.593,1.417-1.325C378.059,154.414,377.507,153.821,376.776,153.821z"/>
					</g>
					<g>
						<polygon style="fill:#407BFF;" points="334.381,160.678 335.783,160.678 335.881,159.275 334.479,159.275 						"/>
						<polygon style="fill:#407BFF;" points="337.284,159.275 337.186,160.678 338.588,160.678 338.686,159.275 338.785,157.873 
							337.382,157.873 						"/>
						<polygon style="fill:#407BFF;" points="340.285,156.47 340.187,157.873 340.089,159.275 339.991,160.678 341.393,160.678 
							341.492,159.275 341.59,157.873 341.688,156.47 						"/>
					</g>
					<path style="fill:#407BFF;" d="M400.595,156.564l-0.072,1.029h-0.686l-0.144,2.057h0.686l-0.072,1.029h6.171l0.288-4.114
						H400.595z M403.122,159.65h-2.057l0.144-2.057h2.057L403.122,159.65z"/>
					<g>
						<g>
							<g>
								<path style="opacity:0.2;" d="M386.597,229.548h-43.54c-4.892,0-8.581-3.966-8.239-8.858l0,0
									c0.342-4.892,4.585-8.858,9.478-8.858h43.54c4.892,0,8.581,3.966,8.239,8.858l0,0
									C395.733,225.583,391.49,229.548,386.597,229.548z"/>
								<g>
									<g>
										<g>
											<polygon style="fill:#FFFFFF;" points="391.167,223.874 384.561,223.874 385.023,217.268 391.629,217.268 											"/>
											<g>
												<path style="fill:#407BFF;" d="M386.802,220.977c-0.222,0.06-0.512,0.065-0.565-0.139
													c-0.065-0.249,0.302-0.605,0.113-0.768c-0.176-0.152-0.678,0.207-0.803,0.373c-0.241,0.321-0.314,0.933-0.357,1.293
													c-0.031,0.256-0.03,0.535,0.136,0.703c0.155,0.156,0.412,0.173,0.652,0.153c0.978-0.081,1.924-0.629,2.789-1.213
													c1.661-1.12,3.208-2.431,4.59-3.891"/>
											</g>
										</g>
									</g>
									<g>
										<path style="fill:#407BFF;" d="M350.913,220.618c-0.288,4.118-3.86,7.457-7.978,7.457c-4.118,0-7.223-3.338-6.935-7.457
											c0.288-4.118,3.86-7.456,7.978-7.456C348.096,213.162,351.201,216.5,350.913,220.618z"/>
										<path style="fill:#FFFFFF;" d="M347.09,218.931c-0.008-0.497-0.191-0.951-0.518-1.287
											c-0.347-0.351-0.826-0.552-1.353-0.566c-1.243-0.072-2.503-0.058-3.768,0.042c-0.803,0.087-1.522,0.692-1.758,1.477
											c-0.232,0.644-0.421,3.634-0.363,4.274c0.048,0.828,0.602,1.477,1.405,1.648c0.59,0.155,3.541,0.135,4.213,0.026
											c0.823-0.086,1.558-0.715,1.78-1.522C346.952,222.359,347.106,219.53,347.09,218.931z M346.101,222.732
											c-0.107,0.622-0.672,1.124-1.297,1.152c-0.621,0.067-3.365,0.103-3.922-0.055c-0.504-0.128-0.843-0.55-0.866-1.078
											c0-1.272,0.096-2.555,0.289-3.839c0.108-0.619,0.671-1.118,1.293-1.146c1.26-0.087,2.513-0.087,3.749,0
											c0.628,0.075,1.062,0.576,1.053,1.213C346.389,220.224,346.289,221.478,346.101,222.732z M343.352,218.87
											c-0.997-0.014-1.93,0.785-2.083,1.784c-0.009,0.056-0.014,0.111-0.018,0.167c-0.071,1.09,0.711,1.938,1.803,1.954
											c0.997,0.014,1.93-0.785,2.083-1.784c0.009-0.056,0.015-0.111,0.018-0.167c0.069-1.089-0.713-1.935-1.803-1.95
											L343.352,218.87z M343.095,222.089c-0.705-0.013-1.207-0.566-1.155-1.271c0.044-0.644,0.606-1.203,1.256-1.249
											c0.037-0.003,0.074-0.004,0.11-0.003c0.71,0.016,1.212,0.576,1.152,1.287c-0.054,0.644-0.625,1.195-1.274,1.231
											c-0.03,0.002-0.06,0.002-0.089,0.001L343.095,222.089z M345.84,218.803c-0.015,0.234-0.219,0.438-0.455,0.456
											c-0.012,0.001-0.025,0.001-0.037,0.001c-0.255-0.004-0.438-0.202-0.422-0.457c0.015-0.234,0.219-0.438,0.455-0.456
											c0.012-0.001,0.025-0.001,0.037-0.001c0.255,0.003,0.438,0.199,0.422,0.454L345.84,218.803z"/>
									</g>
								</g>
							</g>
							<g>
								<path style="opacity:0.2;" d="M388.334,206.058h-43.54c-4.892,0-8.581-3.966-8.239-8.858l0,0
									c0.342-4.892,4.585-8.858,9.478-8.858h43.54c4.892,0,8.581,3.966,8.239,8.858l0,0
									C397.47,202.092,393.226,206.058,388.334,206.058z"/>
								<g>
									<g>
										<g>
											<polygon style="fill:#FFFFFF;" points="392.904,200.384 386.297,200.384 386.759,193.778 393.365,193.778 											"/>
										</g>
									</g>
									<g>
										<path style="fill:#407BFF;" d="M352.65,197.128c-0.288,4.118-3.86,7.456-7.978,7.456s-7.223-3.338-6.935-7.456
											c0.288-4.118,3.86-7.456,7.978-7.456C349.833,189.671,352.938,193.01,352.65,197.128z"/>
									</g>
								</g>
								<g>
									<polygon style="fill-rule:evenodd;clip-rule:evenodd;fill:#FFFFFF;" points="347.813,201.676 341.399,201.676 
										342.007,192.971 348.422,192.971 									"/>
									<polygon style="fill-rule:evenodd;clip-rule:evenodd;fill:#407BFF;" points="347.192,196.121 342.897,196.121 
										342.933,195.606 347.228,195.606 									"/>
									<polygon style="fill-rule:evenodd;clip-rule:evenodd;fill:#407BFF;" points="347.076,197.775 342.781,197.775 
										342.817,197.259 347.112,197.259 									"/>
									<polygon style="fill-rule:evenodd;clip-rule:evenodd;fill:#407BFF;" points="346.961,199.428 342.665,199.428 
										342.702,198.913 346.997,198.913 									"/>
								</g>
							</g>
							<g>
								<g>
									<g>
										<g>
											<polygon style="fill:#FFFFFF;" points="387.057,297.635 380.451,297.635 380.913,291.029 387.519,291.029 											"/>
											<g>
												<path style="fill:#407BFF;" d="M381.08,295.496c-0.031,0.255-0.03,0.535,0.136,0.703
													c0.155,0.156,0.413,0.173,0.652,0.153c0.978-0.08,1.924-0.629,2.79-1.213c1.661-1.12,3.208-2.431,4.59-3.891
													c-1.623,0.991-3.276,1.926-4.953,2.8c-0.521,0.272-1.05,0.54-1.603,0.688c-0.222,0.06-0.512,0.065-0.565-0.139
													c-0.065-0.249,0.302-0.605,0.113-0.768c-0.176-0.152-0.678,0.207-0.803,0.373
													C381.197,294.524,381.124,295.136,381.08,295.496z"/>
											</g>
										</g>
									</g>
									<path style="fill-rule:evenodd;clip-rule:evenodd;fill:#FFFFFF;" d="M335.754,297.539c-0.291-0.09-0.505-0.314-0.581-0.608
										c-0.217-0.747-0.062-3.862,0.509-4.49c0.184-0.204,0.435-0.336,0.695-0.364c1.424-0.151,5.783-0.132,6.269,0.052
										c0.277,0.095,0.481,0.311,0.561,0.592c0.239,0.773,0.036,3.585-0.367,4.329c-0.106,0.194-0.275,0.352-0.475,0.447
										C341.846,297.771,336.43,297.767,335.754,297.539z M337.32,296.832l3.931-1.96l-3.634-1.974
										C337.519,294.211,337.418,295.514,337.32,296.832L337.32,296.832z"/>
								</g>
							</g>
							<g>
								<path style="opacity:0.2;" d="M383.996,278.728h-43.54c-4.892,0-8.581-3.966-8.239-8.858v0
									c0.342-4.892,4.585-8.858,9.478-8.858h43.54c4.892,0,8.581,3.966,8.239,8.858v0
									C393.131,274.762,388.888,278.728,383.996,278.728z"/>
								<g>
									<g>
										<g>
											<polygon style="fill:#FFFFFF;" points="388.553,273.228 381.947,273.228 382.409,266.621 389.015,266.621 											"/>
											<g>
												<path style="fill:#407BFF;" d="M382.576,271.088c-0.031,0.256-0.03,0.535,0.136,0.703
													c0.155,0.156,0.413,0.173,0.652,0.153c0.978-0.081,1.924-0.629,2.79-1.213c1.661-1.12,3.208-2.431,4.59-3.891
													c-1.623,0.991-3.276,1.926-4.953,2.801c-0.521,0.271-1.05,0.54-1.603,0.688c-0.222,0.06-0.512,0.065-0.565-0.139
													c-0.065-0.249,0.302-0.605,0.113-0.768c-0.176-0.152-0.678,0.207-0.803,0.373
													C382.693,270.117,382.62,270.729,382.576,271.088z"/>
											</g>
										</g>
									</g>
									<g>
										<path style="fill:#407BFF;" d="M348.181,270c-0.288,4.118-3.86,7.457-7.978,7.457c-4.118,0-7.223-3.338-6.935-7.457
											c0.288-4.118,3.86-7.457,7.978-7.457C345.364,262.543,348.469,265.881,348.181,270z"/>
										<path style="fill-rule:evenodd;clip-rule:evenodd;fill:#FFFFFF;" d="M342.016,267.624c0.261,0,0.518,0,0.782,0h0.106
											l0.103-1.355c-0.138,0-0.281-0.035-0.425-0.042c-0.27,0-0.534-0.026-0.802-0.019c-0.397-0.005-0.804,0.118-1.159,0.351
											c-0.393,0.272-0.672,0.683-0.766,1.13c-0.04,0.194-0.067,0.389-0.081,0.583c-0.045,0.322-0.046,0.608-0.07,0.914
											l-0.016,0.113H338.4l-0.112,1.516h1.287l-0.281,3.737h1.583l0.274-3.733h1.287c0.106-0.502,0.208-1.001,0.315-1.519
											h-1.497c0,0,0.06-0.753,0.093-1.078C341.383,267.775,341.657,267.64,342.016,267.624z"/>
									</g>
								</g>
							</g>
							<g>
								<path style="opacity:0.2;" d="M385.296,254.138h-43.54c-4.892,0-8.581-3.966-8.239-8.858l0,0
									c0.342-4.892,4.585-8.858,9.477-8.858h43.54c4.892,0,8.581,3.966,8.239,8.858l0,0
									C394.432,250.172,390.189,254.138,385.296,254.138z"/>
								<g>
									<g>
										<g>
											<polygon style="fill:#FFFFFF;" points="389.864,248.314 383.258,248.314 383.72,241.708 390.326,241.708 											"/>
											<g>
												<path style="fill:#407BFF;" d="M383.887,246.175c-0.031,0.255-0.03,0.535,0.136,0.703
													c0.155,0.156,0.413,0.173,0.652,0.153c0.978-0.08,1.924-0.629,2.79-1.213c1.661-1.12,3.208-2.431,4.59-3.891
													c-1.623,0.991-3.276,1.926-4.953,2.8c-0.521,0.272-1.05,0.54-1.603,0.688c-0.222,0.06-0.512,0.065-0.565-0.139
													c-0.065-0.249,0.302-0.605,0.113-0.768c-0.176-0.152-0.678,0.207-0.803,0.373
													C384.003,245.203,383.93,245.815,383.887,246.175z"/>
											</g>
										</g>
									</g>
									<g>
										<path style="fill:#407BFF;" d="M349.536,245.081c-0.288,4.118-3.86,7.456-7.978,7.456s-7.223-3.338-6.935-7.456
											c0.288-4.118,3.86-7.457,7.978-7.457C346.719,237.624,349.824,240.962,349.536,245.081z"/>
										<path style="fill-rule:evenodd;clip-rule:evenodd;fill:#FFFFFF;" d="M340.705,246.911
											c-0.629-0.022-1.131-0.418-1.278-1.007c0.201,0.04,0.416,0.034,0.627-0.019h0.019c-0.392-0.084-0.714-0.323-0.895-0.666
											c-0.124-0.229-0.177-0.496-0.153-0.772c0.184,0.107,0.395,0.167,0.619,0.177c-0.283-0.208-0.468-0.521-0.52-0.882
											c-0.061-0.349,0.023-0.726,0.234-1.052c0.662,0.9,1.7,1.447,2.884,1.519c0.008-0.058-0.01-0.109-0.013-0.161
											c-0.021-0.324,0.08-0.662,0.284-0.949c0.246-0.35,0.628-0.588,1.033-0.644c0.48-0.078,0.937,0.073,1.231,0.406
											c0.017,0.023,0.047,0.031,0.077,0.023c0.299-0.061,0.593-0.17,0.869-0.322h0.019l0,0
											c-0.128,0.307-0.356,0.575-0.643,0.756c0.279-0.031,0.558-0.105,0.826-0.219l0,0c-0.062,0.074-0.121,0.148-0.182,0.219
											c-0.168,0.189-0.359,0.358-0.566,0.502c-0.018,0.008-0.03,0.027-0.029,0.045c-0.012,0.214-0.042,0.43-0.09,0.644
											c-0.087,0.442-0.245,0.877-0.47,1.287c-0.226,0.421-0.521,0.809-0.871,1.146c-0.589,0.566-1.32,0.956-2.087,1.114
											c-0.273,0.057-0.546,0.089-0.818,0.096c-0.834,0.023-1.624-0.194-2.275-0.624l-0.036-0.022
											c0.482,0.059,0.988-0.01,1.47-0.2C340.229,247.207,340.477,247.075,340.705,246.911z"/>
									</g>
								</g>
							</g>
							<g>
								<path style="opacity:0.2;" d="M381.394,327.907h-43.54c-4.892,0-8.581-3.966-8.239-8.858l0,0
									c0.342-4.892,4.585-8.858,9.477-8.858h43.54c4.892,0,8.581,3.966,8.239,8.858l0,0
									C390.529,323.941,386.286,327.907,381.394,327.907z"/>
								<g>
									<polygon style="fill:#FFFFFF;" points="385.963,322.233 379.357,322.233 379.819,315.627 386.425,315.627 									"/>
									<g>
										<path style="fill:#407BFF;" d="M379.986,320.094c-0.031,0.256-0.03,0.535,0.136,0.703
											c0.155,0.156,0.412,0.173,0.652,0.153c0.978-0.081,1.924-0.629,2.789-1.213c1.661-1.12,3.208-2.431,4.59-3.891
											c-1.623,0.991-3.276,1.926-4.953,2.8c-0.521,0.272-1.05,0.54-1.603,0.689c-0.222,0.06-0.512,0.065-0.565-0.139
											c-0.065-0.249,0.302-0.605,0.113-0.768c-0.176-0.152-0.678,0.207-0.803,0.373
											C380.102,319.122,380.029,319.734,379.986,320.094z"/>
									</g>
								</g>
								<g>
									<g>
										<path style="fill:#407BFF;" d="M345.79,318.947c-0.288,4.118-3.86,7.457-7.978,7.457c-4.118,0-7.223-3.339-6.935-7.457
											c0.288-4.118,3.86-7.456,7.978-7.456S346.078,314.829,345.79,318.947z"/>
										<polygon style="fill-rule:evenodd;clip-rule:evenodd;fill:#FFFFFF;" points="342.526,317.519 342.259,321.332 
											334.185,321.332 334.453,317.487 338.229,320.061 										"/>
										<polygon style="fill-rule:evenodd;clip-rule:evenodd;fill:#FFFFFF;" points="342.58,316.743 342.577,316.795 
											338.279,319.337 334.504,316.762 334.505,316.743 										"/>
									</g>
								</g>
							</g>
						</g>
					</g>
					<g>
						<g>
							<path style="fill:#263238;" d="M347.77,179.886h1.611c1.16,0,1.907,0.699,1.832,1.774c-0.075,1.075-0.919,1.774-2.08,1.774
								h-1.611L347.77,179.886z M349.139,182.76c0.704,0,1.195-0.421,1.242-1.1c0.048-0.679-0.384-1.1-1.088-1.1h-0.75l-0.154,2.2
								H349.139z"/>
							<path style="fill:#263238;" d="M351.846,180.706h0.79l-0.191,2.727h-0.79L351.846,180.706z M351.807,179.886
								c0.018-0.248,0.228-0.441,0.522-0.441c0.294,0,0.479,0.183,0.462,0.426c-0.018,0.264-0.229,0.457-0.523,0.457
								C351.974,180.327,351.79,180.134,351.807,179.886z"/>
							<path style="fill:#263238;" d="M352.936,183.181l0.303-0.568c0.232,0.158,0.594,0.264,0.929,0.264
								c0.365,0,0.508-0.096,0.519-0.249c0.031-0.445-1.647,0.01-1.571-1.079c0.036-0.517,0.528-0.882,1.324-0.882
								c0.375,0,0.784,0.086,1.031,0.238l-0.302,0.563c-0.258-0.152-0.523-0.203-0.771-0.203c-0.354,0-0.515,0.112-0.525,0.253
								c-0.033,0.467,1.645,0.016,1.57,1.09c-0.036,0.507-0.532,0.867-1.348,0.867C353.635,183.474,353.178,183.348,352.936,183.181
								z"/>
							<path style="fill:#263238;" d="M357.642,183.302c-0.17,0.117-0.412,0.172-0.655,0.172c-0.643,0-0.995-0.329-0.95-0.978
								l0.078-1.12h-0.42l0.043-0.608h0.42l0.046-0.664h0.79l-0.046,0.664h0.679l-0.043,0.608h-0.679l-0.078,1.11
								c-0.017,0.233,0.101,0.36,0.314,0.36c0.116,0,0.236-0.036,0.326-0.101L357.642,183.302z"/>
							<path style="fill:#263238;" d="M359.967,180.666l-0.051,0.73c-0.065-0.005-0.116-0.01-0.176-0.01
								c-0.436,0-0.741,0.238-0.777,0.761l-0.09,1.287h-0.791l0.191-2.727h0.755l-0.025,0.36
								C359.212,180.803,359.546,180.666,359.967,180.666z"/>
							<path style="fill:#263238;" d="M362.752,181.877l-0.109,1.556h-0.739l0.024-0.339c-0.164,0.249-0.457,0.38-0.858,0.38
								c-0.638,0-0.993-0.355-0.96-0.826c0.034-0.481,0.396-0.816,1.228-0.816h0.628c0.023-0.34-0.165-0.537-0.59-0.537
								c-0.289,0-0.595,0.096-0.804,0.253l-0.245-0.553c0.314-0.212,0.763-0.33,1.199-0.33
								C362.356,180.666,362.81,181.051,362.752,181.877z M361.914,182.572l0.019-0.279h-0.542c-0.37,0-0.496,0.137-0.508,0.319
								c-0.014,0.198,0.144,0.33,0.423,0.33C361.568,182.942,361.805,182.82,361.914,182.572z"/>
							<path style="fill:#263238;" d="M363.284,182.07c0.058-0.821,0.732-1.404,1.618-1.404c0.573,0,1.006,0.249,1.172,0.695
								l-0.636,0.329c-0.129-0.258-0.339-0.375-0.587-0.375c-0.4,0-0.734,0.279-0.767,0.755c-0.034,0.477,0.261,0.755,0.661,0.755
								c0.248,0,0.474-0.111,0.64-0.375l0.589,0.335c-0.228,0.436-0.697,0.689-1.27,0.689
								C363.819,183.474,363.227,182.892,363.284,182.07z"/>
							<path style="fill:#263238;" d="M368.196,183.302c-0.17,0.117-0.413,0.172-0.656,0.172c-0.643,0-0.995-0.329-0.95-0.978
								l0.079-1.12h-0.42l0.043-0.608h0.42l0.046-0.664h0.79l-0.046,0.664h0.679l-0.043,0.608h-0.679l-0.078,1.11
								c-0.016,0.233,0.101,0.36,0.314,0.36c0.116,0,0.235-0.036,0.326-0.101L368.196,183.302z"/>
							<path style="fill:#263238;" d="M368.827,180.706h0.79l-0.191,2.727h-0.791L368.827,180.706z M368.788,179.886
								c0.018-0.248,0.228-0.441,0.522-0.441c0.294,0,0.479,0.183,0.462,0.426c-0.018,0.264-0.23,0.457-0.524,0.457
								C368.954,180.327,368.771,180.134,368.788,179.886z"/>
							<path style="fill:#263238;" d="M373.058,181.873l-0.109,1.561h-0.79l0.101-1.439c0.031-0.441-0.157-0.643-0.507-0.643
								c-0.38,0-0.67,0.233-0.705,0.735l-0.094,1.348h-0.79l0.191-2.727h0.755l-0.023,0.319c0.229-0.233,0.557-0.36,0.927-0.36
								C372.656,180.666,373.116,181.041,373.058,181.873z"/>
							<path style="fill:#263238;" d="M376.7,180.706l-0.159,2.271c-0.071,1.014-0.65,1.48-1.633,1.48
								c-0.517,0-1.01-0.126-1.312-0.375l0.354-0.567c0.22,0.188,0.591,0.309,0.94,0.309c0.558,0,0.819-0.253,0.853-0.745
								l0.008-0.117c-0.224,0.228-0.531,0.339-0.885,0.339c-0.755,0-1.326-0.521-1.271-1.317c0.056-0.796,0.7-1.318,1.455-1.318
								c0.38,0,0.685,0.126,0.875,0.39l0.024-0.35H376.7z M375.83,181.984c0.028-0.4-0.252-0.67-0.668-0.67
								c-0.415,0-0.738,0.269-0.766,0.67c-0.028,0.4,0.257,0.668,0.672,0.668C375.484,182.653,375.802,182.384,375.83,181.984z"/>
							<path style="fill:#263238;" d="M381.127,182.673h-1.646l-0.367,0.76h-0.841l1.829-3.548h0.811l1.337,3.548h-0.861
								L381.127,182.673z M380.913,182.05l-0.467-1.358l-0.657,1.358H380.913z"/>
							<path style="fill:#263238;" d="M385.632,182.07c-0.06,0.857-0.691,1.404-1.456,1.404c-0.339,0-0.61-0.106-0.797-0.329
								l-0.089,1.272h-0.79l0.26-3.711h0.755l-0.022,0.314c0.214-0.238,0.516-0.355,0.881-0.355
								C385.138,180.666,385.692,181.213,385.632,182.07z M384.831,182.07c0.033-0.472-0.246-0.755-0.641-0.755
								s-0.714,0.284-0.747,0.755c-0.033,0.472,0.246,0.755,0.641,0.755S384.798,182.542,384.831,182.07z"/>
							<path style="fill:#263238;" d="M389.132,182.07c-0.06,0.857-0.691,1.404-1.457,1.404c-0.339,0-0.61-0.106-0.797-0.329
								l-0.089,1.272h-0.791l0.26-3.711h0.755l-0.022,0.314c0.214-0.238,0.516-0.355,0.881-0.355
								C388.637,180.666,389.191,181.213,389.132,182.07z M388.331,182.07c0.033-0.472-0.246-0.755-0.641-0.755
								c-0.395,0-0.714,0.284-0.747,0.755c-0.033,0.472,0.246,0.755,0.641,0.755C387.979,182.825,388.298,182.542,388.331,182.07z"
								/>
							<path style="fill:#263238;" d="M389.321,183.181l0.303-0.568c0.232,0.158,0.594,0.264,0.929,0.264
								c0.365,0,0.508-0.096,0.519-0.249c0.031-0.445-1.647,0.01-1.571-1.079c0.036-0.517,0.528-0.882,1.324-0.882
								c0.374,0,0.784,0.086,1.032,0.238l-0.303,0.563c-0.258-0.152-0.523-0.203-0.771-0.203c-0.355,0-0.515,0.112-0.524,0.253
								c-0.033,0.467,1.645,0.016,1.57,1.09c-0.035,0.507-0.532,0.867-1.347,0.867C390.02,183.474,389.563,183.348,389.321,183.181z
								"/>
						</g>
					</g>
				</g>
			</g>
			<g>
				<g>
					<g>
						<g>
							<path style="fill:#407BFF;" d="M405.572,167.661c-0.048,0.689-0.646,1.247-1.335,1.247c-0.689,0-1.208-0.559-1.16-1.247
								c0.048-0.689,0.646-1.247,1.335-1.247C405.101,166.413,405.62,166.972,405.572,167.661z"/>
						</g>
					</g>
					<g>
						<g>
							<path style="fill:#407BFF;" d="M405.359,170.707c-0.048,0.689-0.646,1.247-1.335,1.247s-1.208-0.558-1.16-1.247
								c0.048-0.689,0.646-1.247,1.335-1.247S405.407,170.018,405.359,170.707z"/>
						</g>
					</g>
					<g>
						<g>
							<path style="fill:#407BFF;" d="M405.146,173.753c-0.048,0.689-0.646,1.247-1.335,1.247s-1.208-0.559-1.16-1.247
								c0.048-0.689,0.646-1.247,1.335-1.247S405.194,173.064,405.146,173.753z"/>
						</g>
					</g>
				</g>
			</g>
			<g>
				<g>
					<g>
						<path style="fill:#407BFF;" d="M338.748,171.072h-6.327c-0.276,0-0.5-0.224-0.5-0.5c0-0.276,0.224-0.5,0.5-0.5h6.327
							c0.276,0,0.5,0.224,0.5,0.5C339.248,170.848,339.025,171.072,338.748,171.072z"/>
					</g>
				</g>
				<g>
					<g>
						<path style="fill:#407BFF;" d="M333.827,173.699c-0.134,0-0.267-0.054-0.366-0.16l-2.684-2.886l3.061-2.861
							c0.201-0.188,0.518-0.178,0.706,0.024c0.189,0.202,0.178,0.518-0.024,0.706l-2.332,2.18l2.004,2.155
							c0.188,0.202,0.176,0.519-0.026,0.706C334.071,173.654,333.949,173.699,333.827,173.699z"/>
					</g>
				</g>
			</g>
		</g>
		<g>
			<path style="fill:#263238;" d="M346.642,169.836l-0.091,1.312h2.299l-0.065,0.923h-2.299l-0.126,1.809h-1.149l0.347-4.966h3.753
				l-0.064,0.922H346.642z"/>
			<path style="fill:#263238;" d="M349.559,171.397c0.103-1.476,1.329-2.567,2.897-2.567c1.561,0,2.642,1.085,2.538,2.567
				c-0.104,1.483-1.337,2.568-2.898,2.568C350.528,173.965,349.456,172.873,349.559,171.397z M353.83,171.397
				c0.066-0.943-0.556-1.589-1.443-1.589c-0.887,0-1.599,0.645-1.665,1.589c-0.066,0.943,0.556,1.589,1.443,1.589
				C353.052,172.986,353.764,172.34,353.83,171.397z"/>
			<path style="fill:#263238;" d="M355.551,171.397c0.104-1.497,1.329-2.567,2.876-2.567c0.858,0,1.553,0.311,1.982,0.879
				l-0.786,0.681c-0.307-0.383-0.711-0.581-1.207-0.581c-0.93,0-1.635,0.653-1.701,1.589c-0.065,0.936,0.549,1.589,1.479,1.589
				c0.496,0,0.929-0.199,1.29-0.589l0.69,0.681c-0.508,0.575-1.247,0.887-2.113,0.887
				C356.521,173.965,355.447,172.894,355.551,171.397z"/>
			<path style="fill:#263238;" d="M360.961,171.695l0.195-2.781h1.15l-0.191,2.738c-0.066,0.943,0.318,1.333,1.014,1.333
				c0.702,0,1.134-0.39,1.2-1.333l0.191-2.738h1.135l-0.195,2.781c-0.102,1.461-0.996,2.27-2.408,2.27
				C361.64,173.965,360.859,173.156,360.961,171.695z"/>
			<path style="fill:#263238;" d="M366.09,173.39l0.451-0.865c0.397,0.305,1.006,0.518,1.603,0.518c0.681,0,0.974-0.227,0.995-0.533
				c0.065-0.929-2.868-0.291-2.739-2.135c0.059-0.844,0.79-1.546,2.202-1.546c0.625,0,1.252,0.148,1.693,0.439l-0.415,0.873
				c-0.443-0.262-0.91-0.39-1.349-0.39c-0.682,0-0.962,0.255-0.984,0.567c-0.064,0.915,2.868,0.284,2.741,2.107
				c-0.058,0.83-0.796,1.539-2.215,1.539C367.284,173.965,366.506,173.73,366.09,173.39z"/>
			<path style="fill:#263238;" d="M377.505,173.88l0.201-2.979l-1.633,2.454h-0.518l-1.288-2.39l-0.204,2.915h-1.078l0.347-4.966
				h0.951l1.643,3.086l2.047-3.086h0.943l-0.333,4.966H377.505z"/>
			<path style="fill:#263238;" d="M379.627,171.397c0.103-1.476,1.329-2.567,2.897-2.567c1.561,0,2.642,1.085,2.538,2.567
				c-0.103,1.483-1.336,2.568-2.897,2.568C380.597,173.965,379.524,172.873,379.627,171.397z M383.899,171.397
				c0.066-0.943-0.556-1.589-1.443-1.589c-0.887,0-1.599,0.645-1.665,1.589c-0.066,0.943,0.556,1.589,1.442,1.589
				C383.121,172.986,383.833,172.34,383.899,171.397z"/>
			<path style="fill:#263238;" d="M386.105,168.914h2.256c1.625,0,2.67,0.98,2.565,2.483c-0.105,1.504-1.287,2.483-2.912,2.483
				h-2.257L386.105,168.914z M388.024,172.936c0.986,0,1.673-0.589,1.739-1.539c0.066-0.95-0.538-1.539-1.524-1.539h-1.051
				l-0.215,3.078H388.024z"/>
			<path style="fill:#263238;" d="M395.533,172.958l-0.065,0.922h-3.846l0.347-4.966h3.753l-0.064,0.922h-2.611l-0.075,1.078h2.306
				l-0.063,0.894h-2.306l-0.08,1.149H395.533z"/>
		</g>
		<path style="opacity:0.2;fill:#FFFFFF;" d="M404.73,153.589l-88.97,169.75l-0.07,0.13l11.14-159.41c0.07-0.98,0.27-1.93,0.59-2.83
			c0.03-0.09,0.06-0.19,0.1-0.28c1.63-4.26,5.81-7.36,10.51-7.36h18.32c0.67,0.3,1.14,0.96,1.19,1.76l0.03,0.54
			c0.16,2.75,2.36,4.82,5.12,4.82h16.48c2.78,0,5.27-2.07,5.8-4.82l0.11-0.54c0.16-0.8,0.72-1.46,1.44-1.76H404.73z"/>
	</g>
</g>
<g id="Speech_Bubbles">
	<g>
		<g>
			<g>
				<g>
					<g>
						<path style="fill:#407BFF;" d="M301.448,155.072c-2.916,14.927-17.382,24.664-32.308,21.747
							c-2.826-0.552-5.475-1.515-7.876-2.825l-9.336,6.435l2.214-12.01c-5.709-6.225-8.494-14.98-6.75-23.908
							c2.916-14.927,17.382-24.663,32.308-21.747C294.628,125.68,304.365,140.145,301.448,155.072z"/>
					</g>
				</g>
				<g style="opacity:0.3;">
					<g>
						<path style="fill:#FFFFFF;" d="M301.448,155.072c-2.916,14.927-17.382,24.664-32.308,21.747
							c-2.826-0.552-5.475-1.515-7.876-2.825l-9.336,6.435l2.214-12.01c-5.709-6.225-8.494-14.98-6.75-23.908
							c2.916-14.927,17.382-24.663,32.308-21.747C294.628,125.68,304.365,140.145,301.448,155.072z"/>
					</g>
				</g>
			</g>
			<g>
				<g>
					<path style="fill:#FFFFFF;" d="M278.035,167.698c-9.798,1.827-19.256-4.658-21.082-14.456
						c-1.827-9.798,4.658-19.256,14.456-21.083c9.798-1.827,19.256,4.658,21.083,14.457
						C294.319,156.414,287.833,165.871,278.035,167.698z M273.226,142.596c-4.097,0.764-6.808,4.718-6.044,8.815
						c0.764,4.097,4.718,6.808,8.815,6.044c4.097-0.764,6.808-4.718,6.045-8.815C281.277,144.544,277.323,141.832,273.226,142.596z"
						/>
				</g>
			</g>
		</g>
		<g>
			<g>
				<g>
					<g>
						<path style="fill:#407BFF;" d="M223.444,163.574c5.3,11.75,0.071,25.572-11.679,30.872c-2.224,1.003-4.528,1.636-6.83,1.907
							l-3.301,9.025l-4.356-9.389c-6.998-1.506-13.215-6.194-16.386-13.222c-5.3-11.75-0.071-25.572,11.679-30.872
							C204.321,146.594,218.144,151.824,223.444,163.574z"/>
					</g>
				</g>
				<g style="opacity:0.3;">
					<g>
						<path style="fill:#FFFFFF;" d="M223.444,163.574c5.3,11.75,0.071,25.572-11.679,30.872c-2.224,1.003-4.528,1.636-6.83,1.907
							l-3.301,9.025l-4.356-9.389c-6.998-1.506-13.215-6.194-16.386-13.222c-5.3-11.75-0.071-25.572,11.679-30.872
							C204.321,146.594,218.144,151.824,223.444,163.574z"/>
					</g>
				</g>
			</g>
			<g>
				<g>
					<g>
						<g>
							<path style="fill:#FFFFFF;" d="M204.275,183.942c0,1.551-1.257,2.807-2.807,2.807c-1.55,0-2.807-1.257-2.807-2.807
								c0-1.55,1.257-2.807,2.807-2.807C203.018,181.135,204.275,182.392,204.275,183.942z"/>
							<path style="fill:#FFFFFF;" d="M213.101,183.922h-23.014l1.622-4.133h0.081v-9.495c0-4.24,2.698-7.848,6.47-9.208
								c1.164-0.42,1.968-1.488,1.968-2.726v-0.049h2.873c0,0,0.817,2.389,2.011,2.849c1.286,0.495,2.44,1.254,3.396,2.21
								c1.766,1.775,2.864,4.223,2.864,6.925v9.495h0.113L213.101,183.922z"/>
						</g>
					</g>
				</g>
				<g>
					<path style="fill:#407BFF;" d="M217.958,163.154c0.04,3.812-3.017,6.935-6.829,6.975c-3.812,0.04-6.935-3.017-6.975-6.829
						c-0.04-3.812,3.017-6.935,6.829-6.976C214.794,156.284,217.917,159.342,217.958,163.154z"/>
					<polygon style="opacity:0.8;fill:#FFFFFF;" points="215.127,160.325 213.87,159.095 211.042,161.984 208.153,159.155 
						206.923,160.412 209.812,163.24 206.984,166.129 208.24,167.359 211.068,164.47 213.957,167.299 215.187,166.042 
						212.298,163.214 					"/>
				</g>
			</g>
		</g>
	</g>
</g>
<g id="Desk">
	<g>
		<g>
			<g>
				<path style="fill:#263238;" d="M67.975,288.239l21.511,120.77c1.28,5.4,6.02,9.3,11.52,9.47l7.17,0.22l0.24,0.01
					c0.13,0.01,0.26,0.01,0.38,0.01c5.67,0,10.65-3.97,11.93-9.56l34.85-120.92H67.975z M107.945,413.669l-6.78-0.21
					c-3.24-0.11-6.03-2.41-6.79-5.61l-20.04-114.58h74.93l-33.44,114.77c-0.78,3.38-3.83,5.75-7.25,5.65L107.945,413.669z"/>
			</g>
			<g style="opacity:0.3;">
				<path style="fill:#FFFFFF;" d="M67.975,288.239l21.511,120.77c1.28,5.4,6.02,9.3,11.52,9.47l7.17,0.22
					c5.41-0.28,10.07-4.16,11.3-9.54l34.85-120.92H67.975z M115.825,408.039c-0.78,3.38-3.83,5.75-7.25,5.65l-0.63-0.02
					c-0.21,0.02-0.41,0.03-0.62,0.02l-7.41-0.23c-3.24-0.11-6.03-2.41-6.79-5.61l-20.04-114.58h76.18L115.825,408.039z"/>
			</g>
		</g>
		<g>
			<g>
				<path style="fill:#263238;" d="M174.905,288.239l21.511,120.77c1.28,5.4,6.02,9.3,11.52,9.47l7.17,0.22l0.24,0.01
					c0.13,0.01,0.26,0.01,0.38,0.01c5.67,0,10.65-3.97,11.93-9.56l34.85-120.92H174.905z M214.876,413.669l-6.78-0.21
					c-3.24-0.11-6.03-2.41-6.79-5.61l-20.04-114.58h74.93l-33.44,114.77c-0.78,3.38-3.83,5.75-7.25,5.65L214.876,413.669z"/>
			</g>
			<g style="opacity:0.5;">
				<path style="fill:#FFFFFF;" d="M174.905,288.239l21.511,120.77c1.28,5.4,6.02,9.3,11.52,9.47l7.17,0.22
					c5.41-0.28,10.07-4.16,11.3-9.54l34.85-120.92H174.905z M222.756,408.039c-0.78,3.38-3.83,5.75-7.25,5.65l-0.63-0.02
					c-0.21,0.02-0.41,0.03-0.62,0.02l-7.41-0.23c-3.24-0.11-6.03-2.41-6.79-5.61l-20.04-114.58h76.18L222.756,408.039z"/>
			</g>
		</g>
		<g>
			<g>
				<g>
					<path style="fill:#263238;" d="M119.83,281.145v1.008c0,0.522,0.423,0.945,0.945,0.945h36.156c0.481,0,0.871-0.39,0.871-0.871
						v-0.971c0-0.481-0.39-0.871-0.871-0.871h-8.991c-1.021,0-1.796-0.92-1.622-1.927l3.154-18.221h-20.536l-8.793,19.457
						C119.936,280.15,119.83,280.645,119.83,281.145z"/>
					<path style="opacity:0.2;fill:#FFFFFF;" d="M157.801,281.255v0.975c0,0.482-0.387,0.869-0.869,0.869h-36.155
						c-0.522,0-0.949-0.427-0.949-0.944v-1.01c0-0.266,0.03-0.532,0.09-0.794c0.055-0.226,0.126-0.447,0.221-0.658l8.795-19.454
						h20.539l-3.155,18.218c-0.02,0.111-0.03,0.216-0.025,0.322c0.015,0.763,0.568,1.421,1.306,1.572
						c0.111,0.025,0.221,0.035,0.341,0.035h8.991C157.414,280.386,157.801,280.778,157.801,281.255z"/>
					<g>
						<g>
							<path style="fill:#263238;" d="M118.98,279.695l8.793-19.457h1.162l-8.793,19.457c-0.206,0.456-0.313,0.95-0.313,1.45v1.008
								c0,0.522,0.423,0.945,0.945,0.945h-1.162c-0.522,0-0.946-0.423-0.946-0.945v-1.008
								C118.667,280.645,118.774,280.15,118.98,279.695z"/>
						</g>
					</g>
					<polygon style="opacity:0.2;" points="128.935,260.238 149.471,260.238 148.666,264.887 126.834,264.887 					"/>
				</g>
				<g>
					<g>
						<path style="fill:#263238;" d="M97.475,262.28h87.62c1.769,0,3.078-1.434,2.923-3.203l-5.539-63.314
							c-0.155-1.769-1.714-3.203-3.483-3.203h-87.62c-1.769,0-3.078,1.434-2.923,3.203l5.539,63.314
							C94.146,260.846,95.705,262.28,97.475,262.28z"/>
					</g>
					<path style="fill:#407BFF;" d="M187.418,252.23l0.599,6.847c0.155,1.769-1.154,3.203-2.923,3.203h-87.62
						c-1.769,0-3.329-1.434-3.483-3.203l-0.599-6.847H187.418z"/>
				</g>
				<path style="fill:#407BFF;" d="M96.484,250.296h87.503c0.959,0,1.669-0.778,1.585-1.737l-4.578-52.329
					c-0.084-0.959-0.93-1.737-1.889-1.737H91.602c-0.959,0-1.669,0.778-1.585,1.737l4.578,52.329
					C94.679,249.519,95.525,250.296,96.484,250.296z"/>
				<path style="opacity:0.8;fill:#FFFFFF;" d="M185.025,248.584c0.082,0.944-0.617,1.715-1.561,1.715H96.525
					c-0.944,0-1.779-0.771-1.861-1.715l-4.511-52.26c-0.082-0.953,0.617-1.715,1.561-1.715h86.93c0.953,0,1.779,0.762,1.87,1.715
					L185.025,248.584z"/>
				<g>
					<path style="fill:#407BFF;" d="M89.437,192.559h1.937c-1.769,0-3.078,1.434-2.923,3.203l5.539,63.314
						c0.155,1.769,1.714,3.203,3.483,3.203h-1.937c-1.769,0-3.329-1.434-3.483-3.203l-5.539-63.314
						C86.36,193.994,87.668,192.559,89.437,192.559z"/>
					<path style="fill:#263238;" d="M89.437,192.559h1.937c-1.769,0-3.078,1.434-2.923,3.203l5.539,63.314
						c0.155,1.769,1.714,3.203,3.483,3.203h-1.937c-1.769,0-3.329-1.434-3.483-3.203l-5.539-63.314
						C86.36,193.994,87.668,192.559,89.437,192.559z"/>
				</g>
				<path style="opacity:0.3;fill:#FFFFFF;" d="M126.077,281.262v0.926c0,0.503,0.408,0.911,0.911,0.911h29.944
					c0.481,0,0.87-0.39,0.87-0.871v-0.971c0-0.481-0.39-0.871-0.87-0.871h-8.993c-0.116,0-0.229-0.012-0.337-0.036h-20.614
					C126.485,280.351,126.077,280.759,126.077,281.262z"/>
				<path style="opacity:0.2;" d="M119.92,280.351h27.681c-0.742-0.148-1.292-0.806-1.308-1.573h-25.668L119.92,280.351z"/>
			</g>
			<g>
				<g>
					<path style="fill:#407BFF;" d="M145.042,208.567h-21.067c0.017,0.463,0.035,0.927,0.054,1.39h21.069
						C145.079,209.494,145.06,209.029,145.042,208.567z"/>
					<path style="fill:#407BFF;" d="M140.25,206.345h-16.486c0.019,0.463,0.043,0.926,0.064,1.39h16.488
						C140.294,207.272,140.272,206.809,140.25,206.345z"/>
					<g>
						<path style="fill:#407BFF;" d="M146.304,221.024h-21.067c0.017,0.463,0.035,0.927,0.054,1.39h21.069
							C146.341,221.951,146.322,221.486,146.304,221.024z"/>
						<path style="fill:#407BFF;" d="M141.512,218.802h-16.486c0.019,0.463,0.043,0.925,0.064,1.39h16.488
							C141.556,219.729,141.534,219.266,141.512,218.802z"/>
					</g>
					<path style="fill:#407BFF;" d="M148.61,244.263h-21.067c0.018,0.463,0.035,0.927,0.054,1.39h21.069
						C148.647,245.191,148.628,244.726,148.61,244.263z"/>
					<path style="fill:#407BFF;" d="M143.818,242.042h-16.486c0.019,0.463,0.043,0.926,0.064,1.39h16.488
						C143.862,242.968,143.84,242.505,143.818,242.042z"/>
					<path style="fill:#407BFF;" d="M147.246,232.04h-21.067c0.018,0.463,0.035,0.927,0.054,1.39h21.069
						C147.283,232.968,147.264,232.503,147.246,232.04z"/>
					<path style="fill:#407BFF;" d="M142.454,229.819h-16.486c0.019,0.463,0.043,0.925,0.064,1.39h16.488
						C142.498,230.746,142.476,230.282,142.454,229.819z"/>
					<g>
						<path style="fill:#407BFF;" d="M148.561,204.414h-0.002c0.305,2.483,0.588,4.967,0.85,7.45h7.452
							c-0.262-2.485-0.545-4.968-0.849-7.45H148.561z M156.143,211.215h-6.151c-0.221-2.052-0.455-4.103-0.701-6.153h6.151
							C155.69,207.112,155.923,209.163,156.143,211.215z"/>
						<path style="fill:#407BFF;" d="M150.106,208.691c0.047,0.245,0.132,0.512,0.342,0.673c0.195,0.149,0.447,0.166,0.671,0.147
							c0.913-0.077,1.652-0.602,2.305-1.161c1.253-1.072,2.339-2.328,3.222-3.726c-1.255,0.949-2.556,1.844-3.898,2.681
							c-0.417,0.26-0.842,0.517-1.327,0.659c-0.194,0.057-0.471,0.062-0.583-0.133c-0.137-0.239,0.106-0.579-0.124-0.736
							c-0.214-0.146-0.587,0.198-0.656,0.357C149.925,207.761,150.04,208.347,150.106,208.691z"/>
					</g>
					<g>
						<path style="fill:#407BFF;" d="M150.278,216.88h-0.002c0.305,2.483,0.588,4.967,0.85,7.45h7.452
							c-0.262-2.485-0.545-4.968-0.849-7.45H150.278z M157.86,223.681h-6.151c-0.221-2.052-0.455-4.103-0.701-6.153h6.151
							C157.406,219.578,157.64,221.629,157.86,223.681z"/>
						<path style="fill:#407BFF;" d="M151.823,221.157c0.047,0.245,0.132,0.512,0.343,0.673c0.195,0.149,0.447,0.166,0.671,0.147
							c0.913-0.077,1.652-0.602,2.305-1.161c1.253-1.072,2.339-2.328,3.222-3.725c-1.255,0.949-2.556,1.844-3.898,2.681
							c-0.417,0.26-0.843,0.517-1.327,0.659c-0.194,0.057-0.471,0.062-0.583-0.133c-0.137-0.239,0.107-0.579-0.124-0.736
							c-0.214-0.146-0.587,0.198-0.656,0.357C151.641,220.227,151.756,220.813,151.823,221.157z"/>
					</g>
					<g>
						<path style="fill:#407BFF;" d="M151.636,227.943h-0.002c0.305,2.483,0.588,4.967,0.85,7.45h7.452
							c-0.262-2.485-0.545-4.968-0.85-7.45H151.636z M159.218,234.745h-6.151c-0.221-2.052-0.455-4.103-0.701-6.153h6.151
							C158.764,230.641,158.998,232.693,159.218,234.745z"/>
					</g>
					<g>
						<path style="fill:#407BFF;" d="M153.023,240.02h-0.002c0.305,2.483,0.588,4.967,0.85,7.45h7.452
							c-0.262-2.485-0.545-4.968-0.849-7.45H153.023z M160.605,246.821h-6.151c-0.221-2.052-0.455-4.103-0.701-6.153h6.151
							C160.151,242.718,160.385,244.769,160.605,246.821z"/>
					</g>
				</g>
			</g>
			<g style="opacity:0.3;">
				<polygon style="fill:#FFFFFF;" points="124.14,249.619 120.773,249.619 109.083,194.609 109.056,194.491 112.423,194.491 
					112.45,194.609 				"/>
				<polygon style="fill:#FFFFFF;" points="140.186,249.619 127.544,249.619 115.854,194.609 115.826,194.491 128.469,194.491 
					128.496,194.609 				"/>
			</g>
			<path style="opacity:0.2;fill:#FFFFFF;" d="M89.437,192.559h1.937c-1.769,0-3.078,1.434-2.923,3.203l5.539,63.314
				c0.155,1.769,1.714,3.203,3.483,3.203h-1.937c-1.769,0-3.329-1.434-3.483-3.203l-5.539-63.314
				C86.36,193.994,87.668,192.559,89.437,192.559z"/>
		</g>
		<g>
			<g>
				<g>
					<polygon style="fill:#407BFF;" points="180.959,277.859 149.946,277.859 149.946,282.901 211.972,282.901 211.972,280.828 
											"/>
					<polygon style="opacity:0.6;fill:#FFFFFF;" points="180.959,277.859 149.946,277.859 149.946,282.901 211.972,282.901 
						211.972,280.828 					"/>
					<polygon style="opacity:0.6;fill:#FFFFFF;" points="180.959,282.901 149.946,282.901 149.946,277.859 180.959,280.828 					"/>
				</g>
			</g>
			<g>
				<g>
					<path style="fill:#407BFF;" d="M263.119,292.76H67.308c-0.951,0-1.723-0.771-1.723-1.723v-4.251h199.256v4.251
						C264.841,291.988,264.07,292.76,263.119,292.76z"/>
					<path style="opacity:0.2;" d="M263.119,292.76H67.308c-0.951,0-1.723-0.771-1.723-1.723v-4.251h199.256v4.251
						C264.841,291.988,264.07,292.76,263.119,292.76z"/>
					<path style="opacity:0.3;fill:#FFFFFF;" d="M155.785,292.76H67.308c-0.951,0-1.723-0.771-1.723-1.723v-4.251h90.2V292.76z"/>
				</g>
				<g>
					<path style="fill:#407BFF;" d="M268.899,287.901H61.527c-1.122,0-2.032-0.91-2.032-2.032v-0.936
						c0-1.122,0.91-2.032,2.032-2.032h207.372c1.122,0,2.032,0.91,2.032,2.032v0.936
						C270.931,286.991,270.022,287.901,268.899,287.901z"/>
					<path style="opacity:0.4;fill:#FFFFFF;" d="M155.785,287.901H61.527c-1.122,0-2.032-0.91-2.032-2.032v-0.936
						c0-1.122,0.91-2.032,2.032-2.032h94.258V287.901z"/>
				</g>
			</g>
		</g>
	</g>
</g>
<g id="Character">
	<g>
		<g>
			<g>
				<g>
					<g>
						<path style="fill:#FF8B7B;" d="M209.671,239.081l-5.661-5.205l-6.935,0.433c-0.844,0.053-1.435,0.856-1.235,1.678l1.16,4.755
							c0.141,0.579,0.642,0.999,1.237,1.034c2.313,0.136,7.835,0.463,7.824,0.476c0,0,9.918,12.08,14.956,14.355
							c5.039,2.275,32.749-8.998,32.749-8.998l-3.327-11.161l-26.785,11.228L209.671,239.081z"/>
						<path style="fill:#263238;" d="M241.766,239.154c0,0,10.881-5.894,15.982-6.721c3.096-0.502,18.084,15.254-11.522,19.403
							L241.766,239.154z"/>
						<path style="fill:#407BFF;" d="M242.849,237.435c0,0,4.398,6.876,4.416,14.966l-2.968,0.285c0,0-0.838-7.697-4.072-13.852
							L242.849,237.435z"/>
					</g>
					<g>
						<path style="fill:#FF5652;" d="M226.243,209.291l-2.993,4.704c0,0,1.56,1.151,3.743,0.368L226.243,209.291z"/>
						<g>
							<path style="fill:#263238;" d="M225.733,212.267c-1.837,0-3.331-1.598-3.331-3.563c0-1.964,1.495-3.563,3.331-3.563
								s3.331,1.598,3.331,3.563C229.064,210.669,227.57,212.267,225.733,212.267z M225.733,205.892
								c-1.423,0-2.581,1.262-2.581,2.813c0,1.551,1.158,2.813,2.581,2.813c1.423,0,2.581-1.262,2.581-2.813
								C228.314,207.154,227.156,205.892,225.733,205.892z"/>
						</g>
						<path style="fill:#263238;" d="M224.439,208.636c-0.006,0.607,0.302,1.105,0.7,1.11c0.398,0.005,0.752-0.508,0.742-1.098
							c-0.01-0.59-0.302-1.105-0.701-1.103C224.781,207.545,224.452,208.031,224.439,208.636z"/>
						<path style="fill:#263238;" d="M226.623,205.886c-0.106,0.012-0.212-0.029-0.282-0.11c-0.5-0.629-1.273-0.979-2.076-0.939
							c-0.173,0.021-0.33-0.1-0.354-0.272c-0.019-0.174,0.104-0.332,0.277-0.356c1.016-0.072,2.002,0.359,2.639,1.154
							c0.114,0.134,0.098,0.335-0.035,0.449l-0.001,0.001C226.742,205.852,226.684,205.877,226.623,205.886z"/>
						<path style="fill:#FF8B7B;" d="M247.864,204.844c0.267,8.069,0.555,11.485-3.106,15.986
							c-5.795,4.779-15.492,5.341-18.163-2.493c-2.408-7.047-2.44-19.03,5.115-23.013c5.386-2.836,12.051-0.77,14.888,4.616
							C247.394,201.455,247.827,203.134,247.864,204.844z"/>
						<polygon style="fill:#FF8B7B;" points="236.23,222.227 237.999,234.212 248.007,232.14 244.801,219.873 						"/>
						<g>
							<polygon style="fill:#263238;" points="233.252,207.205 223.249,207.205 223.731,206.205 233.252,206.205 							"/>
						</g>
						<path style="fill:#263238;" d="M229.109,200.71c1.988,2.838,2.753,6.282,3.641,9.598c0.888,3.317,2.021,6.735,4.521,9.167
							c1.031,1.004,3.755,1.997,5.234,1.861c3.88-0.356,6.875-7.399,8.08-11.549c1.293-4.455-0.904-6.801-0.904-6.801
							C242.832,202.791,235.73,202.408,229.109,200.71z"/>
						<path style="opacity:0.2;fill:#FFFFFF;" d="M229.109,200.71c1.988,2.838,2.753,6.282,3.641,9.598
							c0.888,3.317,2.021,6.735,4.521,9.167c1.031,1.004,3.755,1.997,5.234,1.861c3.88-0.356,6.875-7.399,8.08-11.549
							c1.293-4.455-0.904-6.801-0.904-6.801C242.832,202.791,235.73,202.408,229.109,200.71z"/>
						<path style="fill:#FF8B7B;" d="M231.199,208.439c-0.29,1.624,0.079,3.296,1.026,4.647c1.269,1.783,3.29,0.988,4.097-0.916
							c0.732-1.724,0.939-4.715-0.898-5.829C233.588,205.226,231.576,206.457,231.199,208.439z"/>
					</g>
					<path style="fill:#407BFF;" d="M233.53,229.83c0,0,3.72-5.419,10.46-4.929c4.583,0.333,8.707,5.429,8.707,5.429L233.53,229.83z
						"/>
					<path style="fill:#407BFF;" d="M236.726,295.901l-12.938-61.329c-0.564-2.753,1.297-5.281,4.059-5.511
						c8.834-0.736,26.646-1.449,32.601,4.018c13.883,12.744,13.839,63.821,13.839,63.821L236.726,295.901z"/>
					<path style="opacity:0.4;fill:#FFFFFF;" d="M236.726,295.901l-12.938-61.329c-0.564-2.753,1.297-5.281,4.059-5.511
						c8.834-0.736,26.646-1.449,32.601,4.018c13.883,12.744,13.839,63.821,13.839,63.821L236.726,295.901z"/>
					<path style="opacity:0.2;" d="M227.78,233.496c0,0-2.241,0.858-3.732,2.346l4.633,22.618c4.138-9.27,0.696-23.223,0.696-23.223
						L227.78,233.496z"/>
					<g>
						<path style="fill:#FF8B7B;" d="M189.931,277.119l-4.396-1.901l-6.178,1.901l-2.851,2.376l5.822-0.475
							c1.426,1.426,4.751,1.297,4.752,1.307c0,0,18.119,1.426,30.119-11.406c3.743-4.003,10.277-22.812,10.277-22.812l-9.177-4.52
							l-7.992,22.341L189.931,277.119z"/>
						<path style="fill:#407BFF;" d="M212.732,252.212c0,0,4.455-14.281,7.318-18.816c2.863-4.534,7.797-4.335,7.797-4.335
							s5.342,13.044-2.862,29.662L212.732,252.212z"/>
						<path style="opacity:0.4;fill:#FFFFFF;" d="M212.732,252.212c0,0,4.455-14.281,7.318-18.816
							c2.863-4.534,7.797-4.335,7.797-4.335s5.342,13.044-2.862,29.662L212.732,252.212z"/>
					</g>
					<g>
						<g>
							<polygon style="fill:#FF8B7B;" points="231.179,387.208 234.984,405.645 242.491,404.534 240.687,386.583 							"/>
							<polygon style="opacity:0.2;" points="241.876,398.409 240.687,386.583 231.179,387.208 233.558,398.732 							"/>
						</g>
						<g>
							<path style="fill:#407BFF;" d="M275.221,302.8c0,0,3.562,20.488-9.486,20.488c-13.048,0-29.652,4.266-29.652,4.266
								s4.997,4.746,6.107,65.231l-10.827,0.461c0,0-17.984-68.269-14.436-75.771c4.997-10.566,30.371-14.675,30.371-14.675H275.221
								z"/>
							<path style="opacity:0.2;" d="M275.221,302.8c0,0,3.562,20.488-9.486,20.488c-13.048,0-29.652,4.266-29.652,4.266
								s4.997,4.746,6.107,65.231l-10.827,0.461c0,0-17.984-68.269-14.436-75.771c4.997-10.566,30.371-14.675,30.371-14.675H275.221
								z"/>
						</g>
						<g>
							<polygon style="fill:#407BFF;" points="229.069,390.007 243.789,389.637 243.32,395.744 230.969,396.273 							"/>
							<polygon style="opacity:0.5;fill:#FFFFFF;" points="229.069,390.007 243.789,389.637 243.32,395.744 230.969,396.273 							
								"/>
						</g>
						<g>
							<path style="fill:#407BFF;" d="M231.606,406.805c-0.972,0.117-1.998,0.059-2.37-0.32c-0.196-0.224-0.229-0.548-0.083-0.807
								c0.105-0.23,0.295-0.411,0.531-0.503c1.262-0.516,4.177,0.715,4.305,0.769c0.072,0.031,0.118,0.104,0.113,0.182
								c-0.006,0.078-0.058,0.145-0.131,0.17C233.199,406.534,232.408,406.705,231.606,406.805z M230.18,405.433
								c-0.12,0.012-0.237,0.042-0.349,0.088c-0.151,0.045-0.274,0.156-0.332,0.302c-0.11,0.247-0.048,0.353,0.012,0.409
								c0.424,0.465,2.397,0.241,3.831-0.114C232.34,405.693,231.267,405.461,230.18,405.433z"/>
							<path style="fill:#407BFF;" d="M233.942,406.297c-0.025,0.01-0.053,0.011-0.078,0.002c-0.984-0.302-3.067-1.772-3.006-2.671
								c-0.006-0.214,0.122-0.491,0.626-0.604c0.368-0.084,0.754-0.014,1.069,0.193c1.094,0.699,1.556,2.783,1.578,2.879
								c0.013,0.066-0.011,0.134-0.063,0.177C234.03,406.297,233.985,406.305,233.942,406.297z M231.65,403.36l-0.107,0.003
								c-0.329,0.068-0.335,0.205-0.343,0.254c0.016,0.536,1.407,1.714,2.445,2.171c-0.199-0.875-0.662-1.669-1.326-2.272
								C232.121,403.385,231.884,403.33,231.65,403.36L231.65,403.36z"/>
							<path style="fill:#263238;" d="M234.638,405.106l8.535-1.024c0.322-0.039,0.627,0.151,0.735,0.456l2.376,6.758
								c0.215,0.598-0.095,1.257-0.693,1.472c-0.077,0.028-0.156,0.047-0.237,0.058c-3.083,0.316-5.839,0.476-9.669,0.941
								c-4.52,0.544-3.308,0.947-8.613,1.661c-3.197,0.427-4.22-3.142-2.884-3.485c6.12-1.528,6.54-3.482,8.67-5.994
								C233.328,405.459,233.961,405.159,234.638,405.106z"/>
						</g>
					</g>
					<g>
						<g>
							<polygon style="fill:#FF8B7B;" points="169.758,381.867 165.198,402.91 172.676,406.134 180.255,385.481 							"/>
							<polygon style="opacity:0.2;" points="175.199,399.259 180.255,385.481 169.758,381.867 166.794,395.547 							"/>
						</g>
						<path style="fill:#407BFF;" d="M274.287,296.901c0,0,6.772,27.089-17.152,26.387c-10.206-0.3-58.056,10.682-58.056,10.682
							s-4.99,21.386-20.317,59.168l-12.119-2.852c0,0,11.037-60.075,14.257-67.723c5.703-13.545,56.932-25.4,56.932-25.4
							l8.836-0.575c8.974-0.584,17.98-0.499,26.941,0.254L274.287,296.901z"/>
						<g>
							<polygon style="fill:#407BFF;" points="165.185,384.45 182.377,390.038 180.912,396.565 164.315,391.422 							"/>
							<polygon style="opacity:0.5;fill:#FFFFFF;" points="165.185,384.45 182.377,390.038 180.912,396.565 164.315,391.422 							
								"/>
						</g>
						<g>
							<path style="fill:#407BFF;" d="M160.708,401.717c-1.053-0.42-2.065-1.047-2.233-1.639c-0.075-0.337,0.071-0.684,0.363-0.867
								c0.234-0.176,0.529-0.254,0.82-0.218c1.57,0.176,3.851,3.043,3.952,3.17c0.057,0.071,0.062,0.171,0.014,0.248
								c-0.049,0.076-0.139,0.115-0.228,0.1C162.478,402.325,161.579,402.06,160.708,401.717z M160.019,399.531
								c-0.129-0.054-0.265-0.089-0.404-0.103c-0.179-0.038-0.365,0.007-0.506,0.123c-0.249,0.19-0.244,0.332-0.215,0.423
								c0.173,0.708,2.304,1.574,3.959,2.008C162.071,400.993,161.11,400.162,160.019,399.531z"/>
							<path style="fill:#407BFF;" d="M163.365,402.495c-0.031-0.003-0.06-0.018-0.081-0.041c-0.834-0.853-2.137-3.503-1.576-4.383
								c0.112-0.221,0.396-0.432,0.971-0.267c0.42,0.118,0.774,0.403,0.98,0.789c0.725,1.318,0.039,3.693,0.008,3.803
								c-0.024,0.075-0.086,0.13-0.162,0.146C163.455,402.544,163.405,402.528,163.365,402.495z M162.663,398.238l-0.111-0.056
								c-0.373-0.113-0.455,0.022-0.49,0.068c-0.281,0.554,0.48,2.523,1.283,3.563c0.283-1,0.252-2.064-0.089-3.046
								C163.129,398.525,162.918,398.337,162.663,398.238L162.663,398.238z"/>
							<path style="fill:#263238;" d="M164.734,401.67l9.247,3.69c0.349,0.139,0.554,0.501,0.495,0.872l-1.33,8.19
								c-0.113,0.728-0.794,1.226-1.521,1.113c-0.093-0.015-0.185-0.039-0.273-0.073c-3.31-1.388-6.202-2.754-10.355-4.404
								c-4.898-1.953-3.889-0.871-9.68-3.087c-3.488-1.338-2.549-5.535-1.001-5.143c7.071,1.839,8.581,0.085,12.14-1.288
								C163.206,401.303,164.016,401.349,164.734,401.67z"/>
						</g>
					</g>
				</g>
				<g>
					<g>
						<g>
							<path style="fill:#263238;" d="M292.199,401.706c-6.376-1.048-15.831-2.532-20.043-2.842
								c-0.924-0.068-2.085-0.119-3.361-0.153v-32.706h-8.008v32.706c-1.276,0.034-2.437,0.085-3.361,0.153
								c-4.212,0.31-13.667,1.794-20.042,2.842c-3.673,0.604-6.364,3.779-6.364,7.501v1.653h7.767l1.043-2.324
								c0,0,14.598-2.529,19.517-2.891c2.715-0.2,8.173-0.2,10.888,0c4.919,0.362,19.517,2.891,19.517,2.891l1.043,2.324h7.767
								v-1.653C298.562,405.485,295.872,402.309,292.199,401.706z"/>
							<path style="opacity:0.1;fill:#FFFFFF;" d="M292.199,401.706c-6.376-1.048-15.831-2.532-20.043-2.842
								c-0.924-0.068-2.085-0.119-3.361-0.153v-32.706h-8.008v32.706c-1.276,0.034-2.437,0.085-3.361,0.153
								c-4.212,0.31-13.667,1.794-20.042,2.842c-3.673,0.604-6.364,3.779-6.364,7.501v1.653h7.767l1.043-2.324
								c0,0,14.598-2.529,19.517-2.891c2.715-0.2,8.173-0.2,10.888,0c4.919,0.362,19.517,2.891,19.517,2.891l1.043,2.324h7.767
								v-1.653C298.562,405.485,295.872,402.309,292.199,401.706z"/>
							<path style="fill:#263238;" d="M267.5,370.699h-5.418c-2.054,0-3.72-1.665-3.72-3.72v-27.644h12.858v27.644
								C271.22,369.034,269.555,370.699,267.5,370.699z"/>
							<rect x="258.362" y="339.336" style="opacity:0.2;" width="12.858" height="7.633"/>
							<g>
								<circle style="fill:#263238;" cx="295.307" cy="416.336" r="5.476"/>
								<path style="fill:#263238;" d="M239.751,416.336c0,3.025-2.452,5.476-5.476,5.476c-3.025,0-5.476-2.452-5.476-5.476
									c0-3.025,2.452-5.476,5.476-5.476C237.3,410.859,239.751,413.311,239.751,416.336z"/>
							</g>
						</g>
						<polygon style="fill:#263238;" points="214.875,335.103 258.362,339.336 271.22,339.336 309.374,335.044 						"/>
						<g>
							<g>
								<g>
									<g>
										<path style="fill:#263238;" d="M309.251,325.885c-7.671-1.956-15.553-3.032-23.457-3.23
											c-8.146-0.204-38.636-0.031-45.877-0.033c-8.814-0.004-17.628,1.083-26.179,3.264c-5.375,1.371-3.719,9.128,1.137,9.218
											c0.429,0.008,92.599-0.02,92.938-0.005C312.892,335.33,314.745,327.286,309.251,325.885z"/>
										<path style="opacity:0.3;" d="M309.251,325.885c-7.671-1.956-15.553-3.032-23.457-3.23
											c-8.146-0.204-38.636-0.031-45.877-0.033c-8.814-0.004-17.628,1.083-26.179,3.264c-5.375,1.371-3.719,9.128,1.137,9.218
											c0.429,0.008,92.599-0.02,92.938-0.005C312.892,335.33,314.745,327.286,309.251,325.885z"/>
									</g>
									<g>
										<path style="fill:#263238;" d="M216.234,334.938c15.483-3.948,31.883-3.948,47.366,0c5.857,1.494,8.356-7.558,2.496-9.053
											c-17.102-4.361-35.256-4.361-52.358,0C207.888,327.377,210.367,336.434,216.234,334.938L216.234,334.938z"/>
									</g>
									<g style="opacity:0.4;">
										<path style="fill:#FFFFFF;" d="M216.234,334.938c15.483-3.948,31.883-3.948,47.366,0c5.857,1.494,8.356-7.558,2.496-9.053
											c-17.102-4.361-35.256-4.361-52.358,0C207.888,327.377,210.367,336.434,216.234,334.938L216.234,334.938z"/>
									</g>
								</g>
								<g>
									<g>
										<path style="fill:#263238;" d="M234.514,300.484c10.749,9.831,21.497,19.662,32.246,29.494
											c2.226,2.035,5.554-1.275,3.319-3.319c-10.749-9.831-21.497-19.663-32.246-29.494
											C235.607,295.129,232.279,298.44,234.514,300.484L234.514,300.484z"/>
									</g>
									<g style="opacity:0.5;">
										<path style="fill:#FFFFFF;" d="M234.514,300.484c10.749,9.831,21.497,19.662,32.246,29.494
											c2.226,2.035,5.554-1.275,3.319-3.319c-10.749-9.831-21.497-19.663-32.246-29.494
											C235.607,295.129,232.279,298.44,234.514,300.484L234.514,300.484z"/>
									</g>
									<path style="opacity:0.2;" d="M237.833,297.165c-2.225-2.036-5.554,1.275-3.319,3.319c2.056,1.881,4.113,3.762,6.169,5.642
										h6.948C244.365,303.139,241.099,300.152,237.833,297.165z"/>
								</g>
								<g>
									<g>
										<path style="fill:#263238;" d="M217.702,301.954c16.487,0,27.758,0,44.245,0c4.027,0,4.034-6.259,0-6.259
											c-16.487,0-27.758,0-44.245,0C213.674,295.695,213.668,301.954,217.702,301.954L217.702,301.954z"/>
									</g>
									<g style="opacity:0.3;">
										<path style="fill:#FFFFFF;" d="M217.702,301.954c16.487,0,27.758,0,44.245,0c4.027,0,4.034-6.259,0-6.259
											c-16.487,0-27.758,0-44.245,0C213.674,295.695,213.668,301.954,217.702,301.954L217.702,301.954z"/>
									</g>
								</g>
							</g>
						</g>
					</g>
					<g>
						<path style="fill:#263238;" d="M287.469,258.142c-0.969-0.019-1.944,0.415-2.592,1.494
							c-12.418,20.651-16.83,45.475-12.546,69.159c0.268,1.484,1.285,2.176,2.412,2.253c1.88,0.128,35.343,0.01,36.557,0.007
							c1.825-0.004,3.83-1.555,3.401-3.924c-3.982-22.009,0.403-45.193,11.914-64.337c1.431-2.379-0.679-4.612-2.812-4.653
							C322.835,258.124,289.602,258.184,287.469,258.142z"/>
						<g>
							<path style="fill:#263238;" d="M275.498,327.698c-3.982-22.009,0.403-45.193,11.914-64.337
								c2.081-3.46-3.329-6.611-5.404-3.159c-12.418,20.651-16.83,45.475-12.545,69.159
								C270.178,333.319,276.211,331.642,275.498,327.698L275.498,327.698z"/>
						</g>
						<g style="opacity:0.4;">
							<path style="fill:#FFFFFF;" d="M275.498,327.698c-3.982-22.009,0.403-45.193,11.914-64.337
								c2.081-3.46-3.329-6.611-5.404-3.159c-12.418,20.651-16.83,45.475-12.545,69.159
								C270.178,333.319,276.211,331.642,275.498,327.698L275.498,327.698z"/>
						</g>
					</g>
				</g>
			</g>
			<g>
				<g>
					<path style="fill:#407BFF;" d="M204.265,244.11h-8.206c-0.923,0-1.724-0.748-1.788-1.671l-1.371-19.613
						c-0.065-0.923,0.631-1.671,1.555-1.671h8.206c0.923,0,1.724,0.748,1.788,1.671l1.371,19.613
						C205.884,243.361,205.188,244.11,204.265,244.11z"/>
					<path style="fill:#407BFF;" d="M204.679,244.051h-8.206c-0.923,0-1.724-0.748-1.788-1.671l-1.371-19.613
						c-0.065-0.923,0.631-1.671,1.555-1.671h8.206c0.923,0,1.724,0.748,1.788,1.671l1.372,19.613
						C206.298,243.302,205.602,244.051,204.679,244.051z"/>
					<path style="fill:#407BFF;" d="M203.043,221.591h-2.041c-0.134,0-0.24,0.099-0.247,0.232l-0.004,0.064
						c-0.019,0.324-0.277,0.566-0.604,0.566h-1.94c-0.327,0-0.619-0.243-0.683-0.566l-0.013-0.064
						c-0.026-0.133-0.146-0.232-0.28-0.232h-2.041c-0.681,0-1.194,0.552-1.146,1.233l1.313,18.769
						c0.048,0.681,0.638,1.233,1.319,1.233h7.853c0.681,0,1.194-0.552,1.146-1.233l-1.313-18.769
						C204.314,222.143,203.724,221.591,203.043,221.591z"/>
					<path style="opacity:0.5;fill:#FFFFFF;" d="M203.043,221.591h-2.041c-0.134,0-0.24,0.099-0.247,0.232l-0.004,0.064
						c-0.019,0.324-0.277,0.566-0.604,0.566h-1.94c-0.327,0-0.619-0.243-0.683-0.566l-0.013-0.064
						c-0.026-0.133-0.146-0.232-0.28-0.232h-2.041c-0.681,0-1.194,0.552-1.146,1.233l1.313,18.769
						c0.048,0.681,0.638,1.233,1.319,1.233h7.853c0.681,0,1.194-0.552,1.146-1.233l-1.313-18.769
						C204.314,222.143,203.724,221.591,203.043,221.591z"/>
					<g>
						<path style="opacity:0.2;" d="M202.91,239.245h-5.126c-0.576,0-1.076-0.467-1.116-1.043l0,0
							c-0.04-0.576,0.394-1.043,0.97-1.043h5.126c0.576,0,1.076,0.467,1.116,1.043l0,0
							C203.92,238.778,203.486,239.245,202.91,239.245z"/>
						<g>
							<g style="opacity:0.7;">
								<path d="M198.656,221.799c0.006,0.086-0.059,0.156-0.145,0.156s-0.161-0.07-0.167-0.156
									c-0.006-0.086,0.059-0.156,0.145-0.156C198.575,221.643,198.65,221.713,198.656,221.799z"/>
								<path d="M199.751,221.643c-0.062,0-0.473,0-0.535,0c-0.086,0-0.151,0.07-0.145,0.156c0.006,0.086,0.081,0.156,0.167,0.156
									c0.053,0,0.481,0,0.535,0c0.086,0,0.151-0.07,0.145-0.156C199.912,221.713,199.837,221.643,199.751,221.643z"/>
							</g>
							<g>
								<polygon style="fill:#407BFF;" points="194.872,222.45 195.038,222.45 195.026,222.285 194.861,222.285 								"/>
								<polygon style="fill:#407BFF;" points="195.191,222.285 195.203,222.45 195.368,222.45 195.356,222.285 195.345,222.12 
									195.18,222.12 								"/>
								<polygon style="fill:#407BFF;" points="195.498,221.955 195.51,222.12 195.521,222.285 195.533,222.45 195.698,222.45 
									195.686,222.285 195.675,222.12 195.663,221.955 								"/>
							</g>
							<path style="fill:#407BFF;" d="M202.601,221.966l0.008,0.121h-0.081l0.017,0.242h0.081l0.008,0.121h0.727l-0.034-0.484
								H202.601z M202.949,222.329h-0.242l-0.017-0.242h0.242L202.949,222.329z"/>
							<g>
								<g>
									<g>
										<path style="opacity:0.2;" d="M202.154,230.559h-5.126c-0.576,0-1.076-0.467-1.116-1.043l0,0
											c-0.04-0.576,0.394-1.043,0.97-1.043h5.127c0.576,0,1.076,0.467,1.116,1.043l0,0
											C203.165,230.092,202.73,230.559,202.154,230.559z"/>
										<g>
											<g>
												<g>
													<polygon style="fill:#E0E0E0;" points="202.599,229.891 201.821,229.891 201.767,229.113 202.545,229.113 
																											"/>
													<g>
														<path style="fill:#407BFF;" d="M202.037,229.55c-0.025,0.007-0.059,0.008-0.069-0.016
															c-0.012-0.029,0.026-0.071,0.001-0.09c-0.023-0.018-0.076,0.024-0.088,0.044c-0.023,0.038-0.022,0.11-0.021,0.152
															c0.001,0.03,0.005,0.063,0.028,0.083c0.021,0.018,0.051,0.02,0.079,0.018c0.114-0.009,0.216-0.074,0.308-0.143
															c0.177-0.132,0.338-0.286,0.476-0.458"/>
													</g>
												</g>
											</g>
											<g>
												<path style="fill:#407BFF;" d="M197.806,229.508c0.034,0.485-0.332,0.878-0.816,0.878c-0.485,0-0.905-0.393-0.939-0.878
													c-0.034-0.485,0.332-0.878,0.816-0.878S197.772,229.023,197.806,229.508z"/>
												<path style="fill:#FFFFFF;" d="M197.328,229.309c-0.009-0.059-0.038-0.112-0.082-0.152
													c-0.047-0.041-0.106-0.065-0.169-0.067c-0.148-0.008-0.296-0.007-0.443,0.005c-0.093,0.01-0.168,0.081-0.183,0.174
													c-0.017,0.076,0.01,0.428,0.028,0.503c0.019,0.098,0.095,0.174,0.193,0.194c0.072,0.018,0.419,0.016,0.496,0.003
													c0.096-0.01,0.172-0.084,0.185-0.179C197.368,229.713,197.34,229.38,197.328,229.309z M197.274,229.757
													c-0.002,0.073-0.061,0.132-0.134,0.136c-0.072,0.008-0.395,0.012-0.463-0.007c-0.061-0.015-0.108-0.065-0.12-0.127
													c-0.021-0.15-0.031-0.301-0.029-0.452c0.003-0.073,0.061-0.132,0.133-0.135c0.147-0.01,0.294-0.01,0.441,0
													c0.075,0.009,0.135,0.068,0.144,0.143C197.267,229.461,197.276,229.609,197.274,229.757z M196.887,229.302
													c-0.118-0.002-0.214,0.092-0.216,0.21c0,0.007,0,0.013,0.001,0.02c0.01,0.128,0.116,0.228,0.244,0.23
													c0.118,0.002,0.214-0.092,0.216-0.21c0-0.007,0-0.013-0.001-0.02C197.122,229.404,197.016,229.304,196.887,229.302
													L196.887,229.302z M196.91,229.681c-0.083-0.002-0.151-0.067-0.157-0.15c-0.005-0.076,0.052-0.142,0.127-0.147
													c0.004,0,0.009,0,0.013,0c0.084,0.002,0.152,0.068,0.157,0.152c0.004,0.076-0.054,0.141-0.13,0.145
													C196.917,229.68,196.913,229.68,196.91,229.681L196.91,229.681z M197.179,229.294c0.002,0.028-0.019,0.052-0.046,0.054
													c-0.001,0-0.003,0-0.004,0c-0.03-0.001-0.055-0.024-0.057-0.054c-0.002-0.027,0.019-0.052,0.046-0.054
													c0.001,0,0.003,0,0.004,0C197.152,229.24,197.176,229.264,197.179,229.294L197.179,229.294z"/>
											</g>
										</g>
									</g>
									<g>
										<path style="opacity:0.2;" d="M201.972,227.793h-5.126c-0.576,0-1.076-0.467-1.116-1.043l0,0
											c-0.04-0.576,0.394-1.043,0.97-1.043h5.126c0.576,0,1.076,0.467,1.116,1.043l0,0
											C202.982,227.326,202.548,227.793,201.972,227.793z"/>
										<g>
											<g>
												<g>
													<polygon style="fill:#E0E0E0;" points="202.417,227.125 201.639,227.125 201.585,226.348 202.362,226.348 
																											"/>
												</g>
											</g>
											<g>
												<path style="fill:#407BFF;" d="M197.624,226.742c0.034,0.485-0.332,0.878-0.816,0.878c-0.485,0-0.906-0.393-0.939-0.878
													c-0.034-0.485,0.332-0.878,0.817-0.878C197.169,225.864,197.59,226.257,197.624,226.742z"/>
											</g>
										</g>
										<g>
											<polygon style="fill-rule:evenodd;clip-rule:evenodd;fill:#FFFFFF;" points="197.129,227.277 196.374,227.277 
												196.302,226.253 197.057,226.253 											"/>
											<polygon style="fill-rule:evenodd;clip-rule:evenodd;fill:#407BFF;" points="196.964,226.623 196.459,226.623 
												196.454,226.563 196.96,226.563 											"/>
											<polygon style="fill-rule:evenodd;clip-rule:evenodd;fill:#407BFF;" points="196.978,226.818 196.472,226.818 
												196.468,226.757 196.974,226.757 											"/>
											<polygon style="fill-rule:evenodd;clip-rule:evenodd;fill:#407BFF;" points="196.992,227.013 196.486,227.013 
												196.482,226.952 196.987,226.952 											"/>
										</g>
									</g>
									<path style="fill:#407BFF;" d="M198.614,238.201c0.035,0.507-0.347,0.917-0.853,0.917c-0.507,0-0.946-0.411-0.982-0.917
										c-0.035-0.507,0.347-0.917,0.853-0.917C198.139,237.284,198.579,237.695,198.614,238.201z"/>
									<g>
										<g>
											<g>
												<g>
													<polygon style="fill:#E0E0E0;" points="203.33,238.576 202.552,238.576 202.497,237.798 203.275,237.798 													
														"/>
													<g>
														<path style="fill:#407BFF;" d="M202.591,238.324c0.001,0.03,0.005,0.063,0.028,0.083
															c0.021,0.018,0.051,0.02,0.079,0.018c0.114-0.009,0.216-0.074,0.309-0.143c0.177-0.132,0.338-0.286,0.476-0.458
															c-0.175,0.117-0.354,0.227-0.537,0.33c-0.057,0.032-0.115,0.063-0.177,0.081c-0.025,0.007-0.059,0.008-0.069-0.016
															c-0.012-0.029,0.026-0.071,0.001-0.09c-0.023-0.018-0.076,0.024-0.088,0.044
															C202.589,238.209,202.59,238.281,202.591,238.324z"/>
													</g>
												</g>
											</g>
											<path style="fill-rule:evenodd;clip-rule:evenodd;fill:#FFFFFF;" d="M197.387,238.564
												c-0.036-0.011-0.065-0.037-0.078-0.072c-0.038-0.088-0.071-0.455-0.014-0.529c0.018-0.024,0.046-0.04,0.076-0.043
												c0.165-0.018,0.679-0.016,0.739,0.006c0.034,0.011,0.062,0.037,0.076,0.07c0.041,0.091,0.063,0.422,0.028,0.51
												c-0.009,0.023-0.027,0.041-0.049,0.053C198.108,238.592,197.47,238.591,197.387,238.564z M197.559,238.481l0.43-0.231
												l-0.46-0.232C197.54,238.173,197.549,238.326,197.559,238.481L197.559,238.481z"/>
										</g>
									</g>
									<g>
										<path style="opacity:0.2;" d="M202.658,236.35h-5.126c-0.576,0-1.076-0.467-1.116-1.043l0,0
											c-0.04-0.576,0.394-1.043,0.97-1.043h5.126c0.576,0,1.076,0.467,1.116,1.043l0,0
											C203.668,235.883,203.234,236.35,202.658,236.35z"/>
										<g>
											<g>
												<g>
													<polygon style="fill:#E0E0E0;" points="203.104,235.702 202.326,235.702 202.272,234.924 203.05,234.924 													
														"/>
													<g>
														<path style="fill:#407BFF;" d="M202.365,235.45c0,0.03,0.005,0.063,0.028,0.083c0.021,0.018,0.051,0.02,0.079,0.018
															c0.114-0.009,0.216-0.074,0.308-0.143c0.177-0.132,0.338-0.286,0.476-0.458c-0.175,0.117-0.354,0.227-0.537,0.33
															c-0.057,0.032-0.115,0.064-0.177,0.081c-0.025,0.007-0.059,0.008-0.069-0.016c-0.012-0.029,0.026-0.071,0.001-0.09
															c-0.023-0.018-0.076,0.024-0.088,0.044C202.363,235.336,202.364,235.408,202.365,235.45z"/>
													</g>
												</g>
											</g>
											<g>
												<path style="fill:#407BFF;" d="M198.297,235.322c0.034,0.485-0.332,0.878-0.817,0.878c-0.485,0-0.905-0.393-0.939-0.878
													c-0.034-0.485,0.332-0.878,0.816-0.878C197.843,234.444,198.264,234.837,198.297,235.322z"/>
												<path style="fill-rule:evenodd;clip-rule:evenodd;fill:#FFFFFF;" d="M197.532,235.042c0.031,0,0.061,0,0.092,0h0.012
													l-0.01-0.16c-0.016,0-0.034-0.004-0.051-0.005c-0.032,0-0.063-0.003-0.095-0.002c-0.047-0.001-0.093,0.014-0.131,0.041
													c-0.042,0.032-0.068,0.08-0.072,0.133c-0.001,0.023-0.001,0.046,0,0.069c0,0.038,0.005,0.072,0.007,0.108v0.013h-0.152
													l0.012,0.178h0.152l0.028,0.44h0.186l-0.029-0.44h0.152c0.004-0.059,0.008-0.118,0.012-0.179h-0.176
													c0,0-0.005-0.089-0.007-0.127C197.46,235.06,197.49,235.044,197.532,235.042z"/>
											</g>
										</g>
									</g>
									<g>
										<path style="opacity:0.2;" d="M202.406,233.454h-5.127c-0.576,0-1.076-0.467-1.116-1.043l0,0
											c-0.04-0.576,0.394-1.043,0.97-1.043h5.126c0.576,0,1.076,0.467,1.116,1.043l0,0
											C203.417,232.987,202.982,233.454,202.406,233.454z"/>
										<g>
											<g>
												<g>
													<polygon style="fill:#E0E0E0;" points="202.848,232.769 202.07,232.769 202.016,231.991 202.794,231.991 													
														"/>
													<g>
														<path style="fill:#407BFF;" d="M202.109,232.517c0.001,0.03,0.005,0.063,0.028,0.083
															c0.021,0.018,0.051,0.02,0.079,0.018c0.114-0.01,0.216-0.074,0.309-0.143c0.177-0.132,0.338-0.286,0.476-0.458
															c-0.175,0.117-0.354,0.227-0.537,0.33c-0.057,0.032-0.115,0.063-0.177,0.081c-0.025,0.007-0.059,0.008-0.069-0.016
															c-0.012-0.029,0.025-0.071,0.001-0.09c-0.023-0.018-0.077,0.024-0.088,0.044
															C202.107,232.402,202.108,232.474,202.109,232.517z"/>
													</g>
												</g>
											</g>
											<g>
												<path style="fill:#407BFF;" d="M198.046,232.388c0.034,0.485-0.332,0.878-0.816,0.878c-0.485,0-0.906-0.393-0.939-0.878
													c-0.034-0.485,0.332-0.878,0.817-0.878C197.592,231.51,198.013,231.903,198.046,232.388z"/>
												<path style="fill-rule:evenodd;clip-rule:evenodd;fill:#FFFFFF;" d="M197.037,232.604
													c-0.074-0.003-0.14-0.049-0.167-0.119c0.024,0.005,0.049,0.004,0.074-0.002h0.002c-0.048-0.01-0.089-0.038-0.116-0.078
													c-0.018-0.027-0.029-0.058-0.031-0.091c0.023,0.013,0.049,0.02,0.076,0.021c-0.037-0.025-0.064-0.061-0.076-0.104
													c-0.013-0.041-0.009-0.085,0.01-0.124c0.093,0.106,0.224,0.17,0.365,0.179c0-0.007-0.003-0.013-0.004-0.019
													c-0.008-0.038-0.002-0.078,0.018-0.112c0.023-0.041,0.064-0.069,0.111-0.076c0.055-0.009,0.112,0.008,0.152,0.048
													c0.002,0.003,0.006,0.004,0.01,0.003c0.034-0.007,0.067-0.02,0.097-0.038h0.002l0,0
													c-0.01,0.036-0.033,0.068-0.063,0.089c0.032-0.004,0.064-0.012,0.094-0.026l0,0c-0.006,0.009-0.012,0.018-0.018,0.026
													c-0.017,0.022-0.036,0.042-0.058,0.059c-0.002,0.001-0.003,0.003-0.003,0.005c0.002,0.025,0.002,0.051,0,0.076
													c-0.003,0.052-0.014,0.103-0.034,0.152c-0.02,0.05-0.048,0.095-0.084,0.135c-0.06,0.067-0.14,0.113-0.227,0.131
													c-0.031,0.007-0.063,0.01-0.095,0.011c-0.098,0.003-0.194-0.023-0.278-0.074l-0.005-0.003
													c0.058,0.007,0.116-0.001,0.17-0.023C196.986,232.638,197.013,232.623,197.037,232.604z"/>
											</g>
										</g>
									</g>
									<g>
										<path style="opacity:0.2;" d="M203.161,242.14h-5.126c-0.576,0-1.076-0.467-1.116-1.043l0,0
											c-0.04-0.576,0.394-1.043,0.97-1.043h5.126c0.576,0,1.076,0.467,1.116,1.043l0,0
											C204.172,241.673,203.737,242.14,203.161,242.14z"/>
										<g>
											<polygon style="fill:#E0E0E0;" points="203.606,241.472 202.828,241.472 202.774,240.694 203.551,240.694 											"/>
											<g>
												<path style="fill:#407BFF;" d="M202.867,241.22c0.001,0.03,0.005,0.063,0.028,0.083c0.021,0.018,0.051,0.02,0.079,0.018
													c0.114-0.01,0.216-0.074,0.308-0.143c0.177-0.132,0.338-0.286,0.476-0.458c-0.175,0.117-0.354,0.227-0.537,0.33
													c-0.057,0.032-0.115,0.064-0.177,0.081c-0.025,0.007-0.059,0.008-0.069-0.016c-0.012-0.029,0.026-0.071,0.001-0.09
													c-0.023-0.018-0.077,0.024-0.088,0.044C202.865,241.106,202.866,241.178,202.867,241.22z"/>
											</g>
										</g>
										<g>
											<g>
												<path style="fill:#407BFF;" d="M198.822,241.085c0.034,0.485-0.332,0.878-0.817,0.878c-0.485,0-0.905-0.393-0.939-0.878
													c-0.034-0.485,0.332-0.878,0.817-0.878C198.367,240.207,198.788,240.6,198.822,241.085z"/>
												<polygon style="fill-rule:evenodd;clip-rule:evenodd;fill:#FFFFFF;" points="198.414,240.917 198.445,241.366 
													197.495,241.366 197.463,240.913 197.95,241.216 												"/>
												<polygon style="fill-rule:evenodd;clip-rule:evenodd;fill:#FFFFFF;" points="198.408,240.826 198.408,240.832 
													197.944,241.131 197.457,240.828 197.457,240.826 												"/>
											</g>
										</g>
									</g>
								</g>
							</g>
						</g>
					</g>
				</g>
				<g>
					<g>
						<g>
							<g>
								<path style="fill:#407BFF;" d="M203.389,223.05c0.006,0.085-0.058,0.154-0.143,0.154c-0.085,0-0.158-0.069-0.164-0.154
									c-0.006-0.085,0.058-0.154,0.143-0.154C203.309,222.896,203.383,222.965,203.389,223.05z"/>
							</g>
						</g>
						<g>
							<g>
								<path style="fill:#407BFF;" d="M203.415,223.424c0.006,0.085-0.058,0.153-0.143,0.153c-0.085,0-0.158-0.069-0.164-0.153
									c-0.006-0.085,0.058-0.154,0.143-0.154C203.335,223.271,203.409,223.34,203.415,223.424z"/>
							</g>
						</g>
						<g>
							<g>
								<path style="fill:#407BFF;" d="M203.441,223.799c0.006,0.085-0.058,0.154-0.143,0.154c-0.085,0-0.158-0.069-0.164-0.154
									c-0.006-0.085,0.058-0.153,0.143-0.153C203.362,223.646,203.435,223.714,203.441,223.799z"/>
							</g>
						</g>
					</g>
				</g>
				<g>
					<g>
						<g>
							<path style="fill:#407BFF;" d="M195.226,223.469h-0.778c-0.034,0-0.065-0.028-0.07-0.062
								c-0.005-0.034,0.019-0.062,0.053-0.062h0.778c0.034,0,0.065,0.028,0.07,0.062
								C195.284,223.442,195.26,223.469,195.226,223.469z"/>
						</g>
					</g>
					<g>
						<g>
							<path style="fill:#407BFF;" d="M194.666,223.793c-0.016,0-0.034-0.007-0.048-0.02l-0.38-0.355l0.327-0.352
								c0.021-0.023,0.061-0.022,0.087,0.003c0.027,0.025,0.031,0.064,0.009,0.087l-0.249,0.268l0.284,0.265
								c0.027,0.025,0.031,0.064,0.009,0.087C194.695,223.787,194.681,223.793,194.666,223.793z"/>
						</g>
					</g>
				</g>
			</g>
			<path style="opacity:0.2;fill:#FFFFFF;" d="M203.039,221.616l-7.68,19.987l-0.006,0.015l-1.313-18.769
				c-0.008-0.115,0-0.227,0.023-0.333c0.002-0.011,0.004-0.022,0.007-0.033c0.122-0.502,0.563-0.867,1.116-0.867h2.157
				c0.084,0.035,0.15,0.113,0.169,0.207l0.012,0.063c0.064,0.324,0.357,0.568,0.682,0.568h1.94c0.327,0,0.586-0.244,0.604-0.568
				l0.004-0.063c0.006-0.094,0.061-0.172,0.141-0.207H203.039z"/>
		</g>
		<path style="fill:#263238;" d="M253.436,205.119c-2.947,2.906-0.535,10.337-20.224-0.406c-0.855-1.147-1.62-2.312-1.88-3.724
			c-0.1,1.175-0.305,2.351,0.206,3.411c-0.832-0.127-2.324-0.29-3.156-0.417c-0.21-1.075-0.502-3.441-0.713-4.516
			c-0.249,1.611-0.452,2.637-0.701,4.247c-1.925,0.128-4.008-0.246-5.647-1.271c-0.294-2.863,0.579-5.833,2.374-8.072
			c1.795-2.239,5.07-4.213,7.904-4.519c4.716-0.51,10.199-0.739,14.214,1.805C249.826,194.201,252.835,200.367,253.436,205.119z"/>
	</g>
</g>
</svg>
